<?xml version="1.0" encoding="UTF-8" standalone="no"?>
<svg
   xmlns:dc="http://purl.org/dc/elements/1.1/"
   xmlns:cc="http://creativecommons.org/ns#"
   xmlns:rdf="http://www.w3.org/1999/02/22-rdf-syntax-ns#"
   xmlns:svg="http://www.w3.org/2000/svg"
   xmlns="http://www.w3.org/2000/svg"
   xmlns:sodipodi="http://sodipodi.sourceforge.net/DTD/sodipodi-0.dtd"
   xmlns:inkscape="http://www.inkscape.org/namespaces/inkscape"
   width="50mm"
   height="50mm"
   viewBox="0 0 50 50"
   version="1.1"
   id="svg8"
   inkscape:version="1.0.2-2 (e86c870879, 2021-01-15)"
   sodipodi:docname="checkbox-black — kopia (3).svg">
  <defs
     id="defs2" />
  <sodipodi:namedview
     id="base"
     pagecolor="#ffffff"
     bordercolor="#666666"
     borderopacity="1.0"
     inkscape:pageopacity="0.0"
     inkscape:pageshadow="2"
     inkscape:zoom="2.8"
     inkscape:cx="113.03948"
     inkscape:cy="99.752781"
     inkscape:document-units="mm"
     inkscape:current-layer="layer1"
     inkscape:document-rotation="0"
     showgrid="false"
     inkscape:window-width="1465"
     inkscape:window-height="1040"
     inkscape:window-x="2076"
     inkscape:window-y="0"
     inkscape:window-maximized="0" />
  <metadata
     id="metadata5">
    <rdf:RDF>
      <cc:Work
         rdf:about="">
        <dc:format>image/svg+xml</dc:format>
        <dc:type
           rdf:resource="http://purl.org/dc/dcmitype/StillImage" />
        <dc:title />
      </cc:Work>
    </rdf:RDF>
  </metadata>
  <g
     inkscape:label="Warstwa 1"
     inkscape:groupmode="layer"
     id="layer1">
    <path
       style="fill:#333333;fill-opacity:0.992157;stroke-width:0.036;stroke-miterlimit:0"
       id="path15"
       d="m 3.4874157,8.8525748 c 0.1400432,0.024887 0.2781205,0.066606 0.4201295,0.074657 0.710683,0.040292 2.0685712,-0.04417 2.6430499,-0.081503 C 7.4506806,8.7872368 8.349871,8.7155455 9.2490903,8.6449775 12.619996,8.3804386 13.671598,8.2793749 17.186342,7.9712324 21.509941,7.5765297 25.833814,7.1787347 30.169932,6.9471076 32.06733,6.8457524 33.584599,6.7819232 35.449113,6.8097984 c 0.531471,0.00795 1.062109,0.045029 1.593162,0.067544 0.353393,0.033409 0.707678,0.058442 1.06018,0.1002273 0.219263,0.02599 0.437396,0.061897 0.654333,0.1030113 0.121388,0.023006 0.242506,0.050236 0.359757,0.08918 0.04201,0.013954 0.07819,0.094225 0.113974,0.068167 4.669131,-3.399867 5.902053,-3.4652291 3.465568,-3.0979994 -4.490069,0.7563027 -9.015719,1.3072113 -13.562443,1.5743015 -1.425856,0.08376 -2.854134,0.1192954 -4.281201,0.178943 -5.459472,0.017841 -2.827246,0.06889 -7.897114,-0.12872 0,0 -2.299534,1.6662259 -2.299534,1.6662259 v 0 c 5.32801,-0.062102 2.615449,-0.049349 8.137703,-0.034065 1.358663,-0.00693 2.717379,-0.00677 4.075987,-0.020786 3.877948,-0.04002 7.755615,-0.1844757 11.63398,-0.1481421 2.384343,0.1436828 0.599176,0.1393264 5.223505,-3.1903876 0.07805,-0.056199 -0.191156,0.021857 -0.28706,0.029109 -0.971492,0.073464 -1.944319,0.1334715 -2.911774,0.2547715 -0.670726,0.07549 -1.342154,0.1450023 -2.012182,0.2264699 C 36.450587,4.7987737 34.39156,5.1003566 32.326148,5.3511245 29.152395,5.73646 26.895885,5.9796591 23.680004,6.199199 22.217291,6.299055 20.751739,6.3517091 19.287606,6.4279638 16.363557,6.4604758 15.170581,6.5305703 12.379447,6.3702078 11.414581,6.314772 10.015345,6.1713723 8.9969725,5.9861537 8.6218341,5.9179245 8.4752213,5.8648234 8.1764954,5.7673279 c 0,0 -4.6890797,3.0852477 -4.6890797,3.0852469 z" />
    <path
       style="fill:#333333;fill-opacity:0.992157;stroke-width:0.036;stroke-miterlimit:0"
       id="path23"
       d="m 8.6599352,41.548886 c -0.087835,-0.760614 -0.1013238,-0.738119 -0.099406,-1.705507 0.00292,-1.473274 0.09313,-2.810957 0.1450637,-4.297921 0.1207992,-3.458739 0.094277,-3.247792 0.1298059,-6.905585 0.012271,-3.867426 -0.053287,-7.734433 -0.07043,-11.601707 -0.00717,-1.61796 -0.011277,-3.973854 0.027172,-5.64484 0.013745,-0.597295 0.046239,-1.194011 0.069358,-1.7910167 0.025538,-0.372853 0.044078,-0.7462512 0.076616,-1.1185586 0.1672408,-1.9136153 1.0283482,-1.9995427 -4.069904,1.5241363 -0.1873007,0.129454 0.1434163,0.432747 0.1968373,0.654074 0.2041974,0.846005 0.3902043,2.039914 0.5292934,2.847321 0.7718604,5.197806 1.1025034,10.463462 0.991694,15.717606 -0.028303,1.342012 -0.1117028,2.682296 -0.1675545,4.023445 -0.2913399,3.413074 -0.3161681,4.271346 -0.7842089,7.604259 -0.1461391,1.04066 -0.3355387,2.074781 -0.5033084,3.11217 0,0 2.5319622,-1.254615 2.5319622,-1.254615 v 0 c 0.059462,-0.984922 0.110862,-1.970365 0.1783868,-2.954768 0.171513,-2.500382 0.4007512,-4.996622 0.5476524,-7.498803 0.2068679,-3.606741 0.2820021,-4.442079 0.380978,-8.030532 0.1137653,-4.12465 0.046548,-8.249295 0.01859,-12.374431 C 8.803106,11.230993 8.8098766,9.4512227 8.9328963,8.6923977 8.9656874,8.4901288 9.3264452,8.0441143 9.1327847,8.1110745 1.1814236,10.860345 4.6351756,8.694925 5.3150873,10.376819 c 0.1201724,0.29727 0.1908145,0.612237 0.286222,0.918354 0.1096925,0.526199 0.2397627,1.048558 0.3290779,1.578595 0.2661512,1.57947 0.5063931,3.751559 0.6277414,5.298113 0.3009249,3.835211 0.3710556,7.688292 0.1666168,11.530746 -0.108867,1.286434 -0.185004,2.57606 -0.3266008,3.859305 -0.374763,3.396348 -1.0822456,6.741261 -1.8289127,10.07127 0,0 4.0907038,-2.084316 4.0907033,-2.084316 z" />
    <path
       style="fill:#333333;fill-opacity:0.992157;stroke-width:0.036;stroke-miterlimit:0"
       id="path27"
       d="m 43.921425,39.627511 c -0.03943,-0.255088 -0.09004,-0.508696 -0.118279,-0.765265 -0.106926,-0.971685 -0.238826,-3.036158 -0.292351,-3.836951 -0.161756,-2.419982 -0.311214,-4.593211 -0.3951,-7.033905 -0.04842,-1.40893 -0.05979,-2.818891 -0.08969,-4.228337 0.0049,-1.403484 5.29e-4,-2.807031 0.01484,-4.210451 0.02741,-2.694771 0.07333,-4.563329 0.18271,-7.213702 0.08466,-2.051373 0.214929,-4.1001926 0.347211,-6.1488746 0.02466,-0.3364187 0.03222,-0.6745287 0.07397,-1.0092563 0.212759,-1.7058105 2.265479,-3.1547674 -3.821189,1.7565526 -0.186603,0.1505704 0.223493,0.4264412 0.300826,0.6534039 0.366233,1.0748502 0.504994,1.9927186 0.733795,3.1243014 0.768419,4.833572 1.209871,9.741693 0.992929,14.639598 -0.05249,1.185041 -0.182563,2.365371 -0.273842,3.548056 0,0 2.245109,-1.122955 2.245109,-1.122955 v 0 c 0.191101,-2.651145 0.353354,-4.51076 0.430903,-7.173573 0.112019,-3.84648 -0.05352,-7.693875 -0.265993,-11.5336136 -0.05621,-1.1722756 -0.123328,-2.2953723 -0.136192,-3.4648965 -0.0034,-0.3129947 0.317108,-1.0197317 0.01471,-0.9389256 -6.847467,1.8297358 -4.352309,0.635956 -3.897625,2.4094429 0.07396,0.2884649 0.114586,0.5844625 0.171879,0.8766937 0.06766,0.4376751 0.143788,0.8741254 0.202988,1.3130252 0.689568,5.1123529 0.879406,10.2784849 0.842767,15.4327199 -0.0716,3.33917 -0.07695,5.059361 -0.267632,8.358625 -0.16665,2.883501 -0.416761,5.78327 -1.072665,8.602559 0,0 4.075911,-2.034272 4.075911,-2.034272 z" />
    <path
       style="fill:#333333;fill-opacity:0.992157;stroke-width:0.036;stroke-miterlimit:0"
       id="path29"
       d="m 2.2118662,44.699123 c 0.3174539,-0.08427 0.6320924,-0.179972 0.9523618,-0.252817 1.4420363,-0.327983 3.2280306,-0.645517 4.6378439,-0.890508 1.2334001,-0.214334 2.4680781,-0.421402 3.7037331,-0.622335 4.498578,-0.73152 4.427521,-0.698926 9.030408,-1.359728 5.330463,-0.709268 10.704368,-1.263999 16.089324,-1.068935 2.052368,0.07434 2.598857,0.176562 4.4977,0.409125 0.328623,0.104087 0.657246,0.208177 0.985872,0.312267 -0.04381,0.07884 -0.201599,0.293203 -0.131429,0.236527 0.899123,-0.726207 2.430576,-1.1186 2.63249,-2.256597 0.13606,-0.766845 -1.531284,0.288385 -2.302518,0.396846 -2.292694,0.322429 -4.88905,0.535961 -7.171406,0.751033 -1.482876,0.106635 -2.96477,0.227944 -4.44863,0.319905 -3.717269,0.230378 -5.561997,0.284829 -9.270343,0.407979 -1.054577,0.03502 -6.738809,0.202867 -8.007609,0.25798 -1.005144,0.04366 -2.009091,0.111535 -3.013636,0.167304 -2.8471814,0.280453 -1.5355122,0.09751 -3.9408501,0.505182 0,0 -2.845422,2.166413 -2.845422,2.166413 v 0 c 2.8121898,-0.78024 1.288275,-0.415723 4.5841099,-1.040492 1.1129433,-0.139438 2.2227632,-0.306594 3.3388292,-0.418309 2.762077,-0.276474 5.609012,-0.415398 8.378529,-0.535575 4.436172,-0.192495 8.875829,-0.287464 13.313836,-0.424376 1.606994,-0.03377 4.587303,-0.108013 6.310968,-0.105867 0.595448,7.93e-4 1.234684,0.261461 1.785975,0.03643 1.617025,-0.660048 3.096461,-1.632961 4.538681,-2.618068 0.539855,-0.36875 -4.466138,0.195612 -1.955141,-0.155686 -1.882408,-0.0046 -3.234264,-0.02244 -5.162939,0.04339 -5.59525,0.191003 -11.159006,0.836502 -16.714095,1.499246 -5.377432,0.637942 -10.76588,1.310502 -16.1835143,1.473925 0,0 -3.6331285,2.765742 -3.6331285,2.765741 z" />
    <path
       style="fill:#333333;fill-opacity:0.992157;stroke-width:0.036;stroke-miterlimit:0"
       id="path37"
       d="m 38.441135,4.7204061 c 1.232556,1.3996574 2.468319,2.800311 3.627654,4.261976 0.341598,0.4306784 0.669854,0.8717727 1.004782,1.3076589 0,0 3.18063,-1.8888787 3.18063,-1.8888787 v 0 C 45.329358,7.1539165 44.402787,5.9096989 43.569225,4.5983339 43.199396,4.0165181 42.894583,3.5090174 42.609174,2.8912156 42.542327,2.746517 42.494811,2.5936485 42.437629,2.4448649 c 0,0 -3.996494,2.2755412 -3.996494,2.2755412 z" />
  </g>
</svg>
