<?xml version="1.0" encoding="UTF-8" standalone="no"?>
<svg
   xmlns:dc="http://purl.org/dc/elements/1.1/"
   xmlns:cc="http://creativecommons.org/ns#"
   xmlns:rdf="http://www.w3.org/1999/02/22-rdf-syntax-ns#"
   xmlns:svg="http://www.w3.org/2000/svg"
   xmlns="http://www.w3.org/2000/svg"
   xmlns:sodipodi="http://sodipodi.sourceforge.net/DTD/sodipodi-0.dtd"
   xmlns:inkscape="http://www.inkscape.org/namespaces/inkscape"
   width="21mm"
   height="21mm"
   viewBox="0 0 21 21"
   version="1.1"
   id="svg8"
   inkscape:version="1.0.2-2 (e86c870879, 2021-01-15)"
   sodipodi:docname="checkbox1.svg">
  <defs
     id="defs2" />
  <sodipodi:namedview
     id="base"
     pagecolor="#ffffff"
     bordercolor="#666666"
     borderopacity="1.0"
     inkscape:pageopacity="0.0"
     inkscape:pageshadow="2"
     inkscape:zoom="2.8"
     inkscape:cx="96.996218"
     inkscape:cy="122.32221"
     inkscape:document-units="mm"
     inkscape:current-layer="layer1"
     inkscape:document-rotation="0"
     showgrid="false"
     inkscape:window-width="1465"
     inkscape:window-height="1040"
     inkscape:window-x="1946"
     inkscape:window-y="0"
     inkscape:window-maximized="0" />
  <metadata
     id="metadata5">
    <rdf:RDF>
      <cc:Work
         rdf:about="">
        <dc:format>image/svg+xml</dc:format>
        <dc:type
           rdf:resource="http://purl.org/dc/dcmitype/StillImage" />
        <dc:title></dc:title>
      </cc:Work>
    </rdf:RDF>
  </metadata>
  <g
     inkscape:label="Warstwa 1"
     inkscape:groupmode="layer"
     id="layer1">
    <path
       style="fill:#d40000;stroke-width:12.965"
       id="path887"
       d="m 2.0565729,18.270411 c 3.36191,-0.144172 6.720964,-0.355579 10.0786751,-0.575938 0.794708,-0.05185 1.589349,-0.104738 2.384123,-0.155537 0.6618,-0.0423 1.323129,-0.09376 1.985598,-0.123775 0.55355,-0.02508 1.754364,-0.08149 2.39527,0.0411 0.586393,0.112156 0.344061,0.166716 0.125825,0.283784 0.148929,-0.13924 0.645504,-0.372126 0.446786,-0.417725 -0.382399,-0.08774 -0.762066,0.18994 -1.148688,0.25667 -0.495684,0.08555 -0.995606,0.146206 -1.495759,0.199763 -1.853774,0.198499 -3.714456,0.252267 -5.576472,0.303427 -2.3263571,0.0057 -1.206505,0.01521 -3.3595891,-0.02315 0,0 -0.794956,0.576927 -0.794956,0.576927 v 0 c 2.2157447,-0.01514 1.069993,-0.0055 3.4372521,-0.02983 1.8283,-0.04299 3.657706,-0.08439 5.481992,-0.223244 0.202131,-0.01537 2.14381,-0.178266 2.489245,-0.306721 0.613182,-0.228023 1.170083,-0.585534 1.755124,-0.878301 0.01823,-0.100607 0.128669,-0.231261 0.05467,-0.301818 -0.120316,-0.114728 -0.320598,-0.09886 -0.486478,-0.109929 -0.348808,-0.02326 -0.699506,-0.0084 -1.048727,0.0075 -2.028497,0.09259 -4.04232,0.390843 -6.071367,0.478587 -3.1730503,0.1764 -6.3577101,0.357092 -9.5354961,0.198734 0,0 -1.117031,0.799465 -1.117031,0.799465 z" />
    <path
       style="fill:#d40000;stroke-width:12.965"
       id="path889"
       d="m 3.9869649,19.583278 c 2.592843,-0.240919 5.1823697,-0.518538 7.7730461,-0.782153 1.937914,-0.208751 3.881117,-0.375833 5.815282,-0.618741 0.392827,-0.242634 0.88401,-0.37228 1.178483,-0.727906 0.109104,-0.131763 -0.335243,-0.08523 -0.506304,-0.08387 -0.301924,0.0024 -0.60048,0.06387 -0.900795,0.09505 -0.467061,0.0485 -0.934146,0.09676 -1.401334,0.143986 -0.598355,0.06049 -1.196864,0.119452 -1.795296,0.179179 -0.656201,0.06663 -1.312404,0.13326 -1.968608,0.19989 -2.4964473,0.246729 -1.289563,0.132022 -3.6204791,0.345879 0,0 -0.757375,0.562039 -0.757375,0.562039 v 0 c 2.3803721,-0.263303 1.156335,-0.134218 3.6723401,-0.385101 1.782601,-0.155708 1.908508,-0.1802 3.628665,-0.281147 0.429826,-0.02521 0.860002,-0.04426 1.290172,-0.06266 0.265141,-0.01135 0.532029,0.0035 0.795708,-0.02654 0.536831,-0.06114 0.931809,-0.820277 1.435666,-0.752465 -0.655328,0.157361 -1.32098,0.250254 -1.988349,0.343527 -1.36565,0.190871 -2.736003,0.344737 -4.106466,0.496213 -2.47243,0.261467 -4.9521371,0.530246 -7.4405301,0.552844 0,0 -1.103826,0.801976 -1.103826,0.801976 z" />
    <path
       style="fill:#d40000;stroke-width:12.965"
       id="path919"
       d="m 17.918542,2.3396338 c 0.1187,1.9985 0.128813,4.00245 0.137462,6.0039542 -0.005,2.989799 -0.07187,5.979041 -0.192315,8.966311 -0.02887,0.677085 -0.06438,1.353849 -0.100563,2.030571 0,0 1.146188,-0.582541 1.146188,-0.582541 v 0 c -0.02283,-0.650407 -0.04355,-1.300898 -0.0538,-1.951654 -0.03935,-2.975261 0.0074,-5.950135 0.10754,-8.9239622 0.04056,-2.052203 0.04357,-4.106716 0.160067,-6.156443 0,0 -1.204579,0.613764 -1.204579,0.613764 z" />
    <path
       style="fill:#d40000;stroke-width:12.965"
       id="path927"
       d="m 20.213264,1.3884698 c -1.226046,0.472007 -2.504125,0.778929 -3.802417,0.974988 -0.615208,0.09291 -1.234829,0.15378 -1.852243,0.230669 -4.051695,0.347784 -8.1284341,0.283338 -12.1849791,0.05775 -0.223352,-0.03018 -0.452822,-0.0305 -0.670053,-0.09056 -0.02997,-0.0083 0.05981,-0.108901 0.04287,-0.08283 -0.132416,0.203821 -0.617893,0.533197 -0.389524,0.616408 0.475105,0.173117 1.000246,-0.150219 1.502249,-0.210958 0.803265,-0.09719 3.745229,-0.390035 4.435381,-0.459787 3.2160561,-0.326551 1.638576,-0.16367 4.7325001,-0.48805 0,0 0.622905,-0.471841 0.622905,-0.471841 v 0 c -3.1184883,0.357559 -1.537309,0.190641 -4.7437681,0.49849 -2.686488,0.209699 -1.758563,0.147683 -4.231585,0.304347 -0.448628,0.02842 -0.91534,-0.0458 -1.346026,0.08297 -0.626975,0.187463 -1.203678,0.521286 -1.77023403,0.848782 -0.05287,0.03056 0.110208,0.05263 0.165313,0.07894 0.267576,-6.81e-4 0.53515403,-0.0014 0.80273103,-0.0019 1.793032,-0.0031 3.586013,0.0022 5.379043,0.0023 1.520685,1.01e-4 3.2572911,0.0043 4.7781031,-0.03889 0.715717,-0.02034 1.430672,-0.06199 2.14601,-0.09299 1.780521,-0.163953 3.585695,-0.30307 5.287206,-0.895877 0,0 1.096513,-0.861902 1.096513,-0.861902 z" />
    <path
       style="fill:#d40000;stroke-width:12.965"
       id="path931"
       d="m 1.9446539,18.880873 c -0.0059,-0.0711 -0.01574,-0.141975 -0.01759,-0.213289 -0.0085,-0.329882 0.0046,-0.659971 0.0069,-0.989957 0.0073,-1.019386 0.02016,-2.038511 0.03544,-3.057816 0.02789,-2.068713 0.09354,-4.138961 0.269074,-6.201071 0.110458,-1.2976942 0.198408,-1.9301562 0.353504,-3.2077132 0.152046,-1.031301 0.271005,-2.070688 0.492728,-3.090591 0.02936,-0.135068 0.224423,-0.471566 0.105566,-0.401007 -1.39827,0.830084 -1.184828,0.727267 -1.161891,1.884516 -0.02159,3.379441 -0.0499,6.7591572 -0.146568,10.1373812 -0.04281,1.097441 -0.06106,1.741906 -0.126016,2.806237 -0.01815,0.297151 -0.03185,0.594902 -0.06531,0.890717 -0.01836,0.162359 -0.24959,0.516588 -0.08993,0.481857 1.227212,-0.266965 1.12041,-0.379643 1.006846,-0.956244 -0.0454,-0.250235 -0.09894,-0.499126 -0.13621,-0.7507 -0.132265,-0.892693 -0.183185,-1.553699 -0.25821,-2.470867 -0.138205,-1.689489 -0.239884,-3.380922 -0.339667,-5.073007 -0.09969,-2.1482472 -0.06383,-1.1081572 -0.112209,-3.1201072 0,0 -0.90564803,0.466318 -0.90564803,0.466318 v 0 c 0.121783,1.981459 0.05872,0.954111 0.18913203,3.0820442 0.157562,2.82711 0.262229,5.656286 0.41044,8.483737 0.176499,0.819309 0.05239,1.029105 1.299835,-0.237344 0.102473,-0.104037 -0.0094,-0.291905 -0.01368,-0.43787 -0.03463,-1.194297 -0.04618,-2.388944 -0.03314,-3.583768 0.03318,-3.418326 0.08034,-6.8402732 0.370657,-10.2484182 0.08673,-0.920225 0.427834,-1.394587 -1.065805,-0.778892 -0.11217,0.04624 -0.01222,0.242375 -0.02193,0.363311 -0.08002,0.998734 -0.193331,1.994717 -0.286033,2.992247 -0.09935,0.965951 -0.23332,2.234223 -0.317003,3.1935712 -0.181803,2.084263 -0.288499,4.173969 -0.383878,6.263661 -0.07116,1.470829 -0.15007703,2.941727 -0.30293503,4.406646 0,0 1.24347603,-0.633582 1.24347603,-0.633582 z" />
  </g>
</svg>
