<?xml version="1.0" encoding="UTF-8" standalone="no"?>
<svg
   xmlns:dc="http://purl.org/dc/elements/1.1/"
   xmlns:cc="http://creativecommons.org/ns#"
   xmlns:rdf="http://www.w3.org/1999/02/22-rdf-syntax-ns#"
   xmlns:svg="http://www.w3.org/2000/svg"
   xmlns="http://www.w3.org/2000/svg"
   xmlns:sodipodi="http://sodipodi.sourceforge.net/DTD/sodipodi-0.dtd"
   xmlns:inkscape="http://www.inkscape.org/namespaces/inkscape"
   width="21mm"
   height="21mm"
   viewBox="0 0 21 21"
   version="1.1"
   id="svg8"
   inkscape:version="1.0.2-2 (e86c870879, 2021-01-15)"
   sodipodi:docname="checkbox2.svg">
  <defs
     id="defs2" />
  <sodipodi:namedview
     id="base"
     pagecolor="#ffffff"
     bordercolor="#666666"
     borderopacity="1.0"
     inkscape:pageopacity="0.0"
     inkscape:pageshadow="2"
     inkscape:zoom="7.9195959"
     inkscape:cx="24.513683"
     inkscape:cy="40.572919"
     inkscape:document-units="mm"
     inkscape:current-layer="layer1"
     inkscape:document-rotation="0"
     showgrid="false"
     inkscape:window-width="1465"
     inkscape:window-height="1040"
     inkscape:window-x="1946"
     inkscape:window-y="0"
     inkscape:window-maximized="0" />
  <metadata
     id="metadata5">
    <rdf:RDF>
      <cc:Work
         rdf:about="">
        <dc:format>image/svg+xml</dc:format>
        <dc:type
           rdf:resource="http://purl.org/dc/dcmitype/StillImage" />
        <dc:title />
      </cc:Work>
    </rdf:RDF>
  </metadata>
  <g
     inkscape:label="Warstwa 1"
     inkscape:groupmode="layer"
     id="layer1">
    <path
       style="fill:#d40000;fill-opacity:1;stroke-width:0.036;stroke-miterlimit:0"
       id="path78"
       d="M 1.6134107,3.5564635 C 2.8577192,3.5328547 4.1025695,3.5102767 5.3451798,3.4359862 5.8565426,3.4054142 6.3671657,3.3635206 6.8781587,3.3272877 7.4439437,3.2712942 8.0105605,3.2231467 8.5755142,3.1593067 9.880661,3.0118248 10.74753,2.8800964 12.041253,2.6842272 c 0.666579,-0.1009197 1.979008,-0.3115063 2.692439,-0.4125369 0.301727,-0.042728 0.604422,-0.078321 0.906633,-0.1174821 0.318702,-0.025531 0.712869,-0.080704 1.044095,-0.039324 0.06052,0.00756 0.127011,0.019673 0.172897,0.059847 0.02318,0.020298 -0.116549,0.029497 -0.09177,0.011186 0.352583,-0.2604915 0.786461,-0.4226084 1.08417,-0.7443845 0.130039,-0.1405522 -0.366479,0.1111502 -0.549718,0.1667254 -0.282612,0.050964 -0.563622,0.1117904 -0.847836,0.152893 C 15.614535,1.8822875 14.6783,1.9617662 13.840174,2.0130824 12.714953,2.0819764 11.640703,2.1157931 10.512436,2.1087934 9.963014,2.1053846 9.4139113,2.0812167 8.8646463,2.0674285 7.4979578,1.9807941 7.5005716,1.9977389 6.2305852,1.8596239 5.5787966,1.7887398 4.9294924,1.6948939 4.2782975,1.6186767 c 0,0 -1.1126104,0.8060245 -1.1126104,0.8060245 v 0 c 0.1774068,-0.012059 0.3545514,-0.028951 0.532221,-0.036179 0.6543421,-0.026617 1.131417,-0.01612 1.8044789,-0.00606 1.0415005,0.015562 1.7849268,0.035652 2.8427354,0.060623 1.6121226,0.032885 3.2232716,0.059431 4.8358086,0.053509 0.457659,-0.00168 1.79879,-0.012326 2.324651,-0.029879 0.238624,-0.00797 0.476805,-0.026008 0.715207,-0.039012 0.952504,-0.098509 0.679519,-0.00587 1.984081,-0.9926629 0.04658,-0.035234 -0.0509,-0.1207244 -0.106272,-0.1393071 -0.09607,-0.032243 -0.203068,-0.00731 -0.304014,0.00161 -0.439882,0.038851 -0.883629,0.1403504 -1.314191,0.2239293 -0.406021,0.087359 -2.081399,0.448859 -2.385073,0.5092774 -2.17979,0.4336878 -4.383646,0.7678135 -6.6076471,0.849852 -0.4682818,0.00624 -0.9365384,0.02263 -1.4048456,0.018725 C 5.3695233,2.8931782 4.7693388,2.8565745 4.0694103,2.788984 3.7873684,2.7617478 3.4120864,2.7155513 3.1197541,2.659258 3.0596481,2.647683 3.0009241,2.629825 2.941509,2.615108 c 0,0 -1.3280983,0.941356 -1.3280983,0.9413555 z" />
    <path
       style="fill:#d40000;fill-opacity:1;stroke-width:0.036;stroke-miterlimit:0"
       id="path100"
       d="m 17.604935,17.332873 c -0.110235,-0.9539 -0.181771,-1.913549 -0.226722,-2.872733 -0.01945,-0.415009 -0.03008,-0.830384 -0.04512,-1.245576 -9e-4,-0.477776 -0.01186,-0.955639 -0.0027,-1.43333 0.04194,-2.1951107 0.247903,-4.3907587 0.628046,-6.5532654 0.08872,-0.5047001 0.199641,-1.0052455 0.299461,-1.5078682 0.26193,-1.0928136 0.286213,-1.2573521 0.579897,-2.268887 0.07206,-0.24821 0.153033,-0.4937477 0.229549,-0.7406215 0,0 -1.099173,0.5301706 -1.099173,0.5301706 v 0 c -0.116403,0.9341482 -0.236723,1.867797 -0.36733,2.8000834 -0.233554,1.6009569 -0.473016,3.2017332 -0.65439,4.8097135 -0.131881,1.1691916 -0.210598,2.1048376 -0.296019,3.2743196 -0.03617,0.495182 -0.06545,0.990843 -0.09817,1.486265 -0.04106,0.686632 -0.09778,1.692566 -0.151923,2.397387 -0.04629,0.602603 -0.09699,1.231923 -0.199874,1.82955 -0.0125,0.0726 -0.03109,0.144027 -0.04664,0.216041 0,0 1.451107,-0.721249 1.451108,-0.721249 z" />
    <path
       style="fill:#d40000;fill-opacity:1;stroke-width:0.036;stroke-miterlimit:0"
       id="path102"
       d="m 3.7219335,14.999777 c 0.1219066,-0.748932 0.1879333,-1.507444 0.2260989,-2.26499 0.017791,-0.353111 0.025704,-0.706651 0.038555,-1.059977 0.00434,-0.415253 0.012078,-0.830484 0.01302,-1.245758 C 4.0006126,9.9808276 3.9991573,9.53257 3.9924607,9.0843947 3.9888201,8.8409579 3.9302882,6.6106596 3.9252997,6.3503384 3.9026302,5.1673017 3.9089696,5.1792307 3.914682,4.0537517 3.9258395,3.6775787 3.9284086,3.0176867 3.9928182,2.6125042 4.0680226,2.1394223 5.1554889,0.46165207 2.7016698,3.232087 c -0.1195255,0.1349479 0.09447,0.3485547 0.124188,0.5263585 0.050174,0.3001997 0.076785,0.6038654 0.1151774,0.9057981 0.027138,0.4024635 0.063188,0.8044249 0.081415,1.2073903 0.050037,1.1062356 0.044742,1.8679861 0.019598,2.985159 -0.019309,0.8578813 -0.080182,2.3711671 -0.1281811,3.2278911 -0.028828,0.514525 -0.067987,1.028419 -0.101981,1.542629 -0.043269,0.464548 -0.079987,0.929753 -0.1298075,1.393644 -0.041786,0.389077 -0.092151,0.777225 -0.144979,1.164958 -0.1044358,0.766509 -0.2309953,1.529291 -0.4264268,2.278077 0,0 1.3550124,-0.672609 1.3550124,-0.672609 v 0 C 3.3477482,16.299325 3.4081663,14.799103 3.4518739,13.305392 3.5659376,10.260639 3.712099,7.2170785 3.8969332,4.1757801 3.9278416,3.8380087 3.9503124,3.4993587 3.9896583,3.1624659 4.0147143,2.947932 4.3052011,2.5412693 4.0900425,2.5223126 3.5998135,2.4791206 3.1430472,2.8139741 2.711113,3.0498187 2.653191,3.0814447 2.79395,3.1565769 2.8123656,3.2199491 c 0.091605,0.3152344 0.1600846,1.0385127 0.1917192,1.3026035 0.077256,0.8445201 0.1294572,1.3428099 0.1786864,2.2093081 0.1018707,1.793063 0.1222057,3.5976513 -0.083008,5.3845673 -0.054156,0.372035 -0.099178,0.745515 -0.1624695,1.116105 -0.096547,0.565308 -0.2018052,1.023627 -0.3599281,1.565533 -0.066695,0.228572 -0.1598911,0.506527 -0.2625857,0.730417 -0.022826,0.04976 -0.052873,0.09588 -0.079309,0.143817 0,0 1.4864646,-0.672523 1.4864646,-0.672523 z" />
    <path
       style="fill:#d40000;fill-opacity:1;stroke-width:0.036;stroke-miterlimit:0"
       id="path104"
       d="M 3.4656852,17.791383 C 3.9719895,17.47743 2.817229,18.07943 2.5746277,18.326867 2.4154831,18.489185 2.9962905,18.15566 3.2129099,18.08674 4.5004026,17.67711 5.8350307,17.45353 7.16004,17.207654 c 2.1356441,-0.362889 4.285796,-0.663858 6.449441,-0.795147 0.951983,-0.05777 1.170376,-0.04689 2.073019,-0.04983 0.891736,0.03785 0.477923,0.0097 1.241974,0.07601 0,0 1.062945,-0.76901 1.062945,-0.76901 v 0 c -0.901538,0.03229 -0.417618,0.01109 -1.451594,0.06729 -0.346792,0.02778 -0.693964,0.05117 -1.040375,0.08335 -0.97028,0.09013 -1.770171,0.187864 -2.746297,0.309331 -1.676914,0.208671 -3.3516088,0.434929 -5.0269409,0.655771 -0.7582583,0.100384 -1.8681261,0.241871 -2.6483601,0.363747 -0.030841,0.0048 -1.1793847,0.186979 -1.3575768,0.271298 -1.2328936,0.583399 -1.1700883,0.547398 -1.7646373,0.998063 0,0 1.5140473,-0.627139 1.5140473,-0.627139 z" />
    <path
       style="fill:#d40000;stroke-width:0.036;stroke-miterlimit:0"
       id="path11"
       d="m 2.2656751,18.300853 c 1.7469293,-0.06786 3.4866216,-0.246306 5.2268065,-0.405416 0.5278429,-0.04826 1.0558653,-0.09454 1.5837977,-0.141815 1.2374197,-0.109248 2.4772877,-0.187911 3.7179177,-0.249328 0.539061,-0.02669 1.078275,-0.04294 1.616864,-0.07784 0.660516,-0.05446 0.559963,-0.08753 1.466014,-0.851485 0.04236,-0.03571 -0.09548,-0.06279 -0.15027,-0.07104 -0.06007,-0.009 -0.120852,0.01277 -0.181021,0.02116 -0.08997,0.01254 -0.179543,0.02774 -0.269315,0.04161 -0.13431,0.01733 -0.268418,0.03631 -0.40293,0.052 -0.282051,0.0329 -1.037974,0.109305 -1.275088,0.132844 -0.647299,0.06426 -1.449983,0.141991 -2.087087,0.195281 -0.435934,0.03646 -0.872285,0.06775 -1.308427,0.101625 -1.1446047,0.07192 -1.4109885,0.09609 -2.5270558,0.138667 -0.3253459,0.01241 -0.6507712,0.02686 -0.9763527,0.02778 -0.20247,5.82e-4 -0.4056284,-0.0019 -0.6069645,-0.02332 -0.067377,-0.0072 -0.1370255,-0.09902 -0.1936458,-0.0618 -0.3352816,0.220383 -0.6068997,0.524979 -0.9103495,0.787468 0.2588162,-0.04234 0.5166172,-0.09143 0.7764483,-0.127007 0.6980881,-0.09559 1.9701084,-0.2269 2.6323393,-0.291167 0.8242737,-0.07999 2.1152407,-0.193186 2.9496417,-0.2532 0.409948,-0.02949 0.820436,-0.05092 1.230655,-0.07638 0.768838,-0.02817 1.540638,-0.08588 2.310201,-0.03612 0.139578,0.009 0.278112,0.03014 0.417168,0.0452 0,0 1.013552,-0.728581 1.013552,-0.728581 v 0 c -0.164367,-2.91e-4 -0.32885,-0.0071 -0.493099,-9e-4 -0.874894,0.03305 -1.741949,0.172272 -2.612775,0.250916 -1.407993,0.144883 -2.815867,0.288128 -4.2295491,0.36687 -0.7073127,0.0394 -1.5871028,0.07237 -2.3108496,0.0551 -0.1890281,-0.0045 -0.3772506,-0.02627 -0.5658757,-0.0394 -0.4313158,0.279265 -0.9008055,0.506944 -1.2939469,0.837794 -0.097609,0.08214 0.250549,-0.04899 0.3769696,-0.06611 0.2528731,-0.03424 0.5065532,-0.06262 0.7604783,-0.0879 0.6963609,-0.06933 1.6217927,-0.139857 2.3084798,-0.181737 0.4356314,-0.02657 0.8717134,-0.04515 1.30757,-0.06773 1.5383676,-0.05729 3.0770436,-0.108658 4.6162586,-0.136969 0.07602,-0.0041 0.152085,-0.0076 0.228066,-0.01238 0.04576,-0.0029 0.09601,0.0095 0.137132,-0.01078 0.02106,-0.01038 0.0016,-0.05398 0.02104,-0.06721 0.401531,-0.273883 0.819104,-0.523473 1.228657,-0.78521 -0.03631,0.02324 -0.06924,0.05291 -0.108938,0.06973 -0.08021,0.03397 -0.165509,0.05437 -0.248264,0.08156 -0.142232,0.03049 -0.283486,0.06596 -0.426696,0.09146 -0.349432,0.06223 -1.182639,0.173634 -1.483422,0.212515 -1.314794,0.16996 -2.633115,0.31087 -3.9539865,0.424631 -1.1815526,0.09274 -1.8485402,0.156906 -3.022796,0.203901 -0.936685,0.03749 -1.8824776,0.05521 -2.8144504,-0.06747 -0.1014624,-0.01336 -0.2009597,-0.03882 -0.3014398,-0.05823 0,0 -1.1714653,0.838422 -1.1714653,0.838422 z" />
    <path
       style="fill:#d40000;stroke-width:0.036;stroke-miterlimit:0"
       id="path13"
       d="M 3.5167895,3.033469 C 4.3672744,2.9878446 5.2187824,2.9623006 6.0692347,2.9157776 6.5461744,2.8896871 7.3155619,2.836124 7.803208,2.8030789 c 0.3854762,-0.024199 0.7588485,-0.059986 1.1444769,-0.045226 0.095342,0.00365 0.1914445,0.011015 0.2843643,0.03268 0.036422,0.00849 0.1045504,0.019611 0.097074,0.056254 -0.00709,0.034771 -0.1337202,0.00431 -0.1051399,-0.016724 C 9.5423669,2.5957316 9.8893994,2.4030522 10.222107,2.1895469 10.080661,2.2374096 9.9422698,2.2954843 9.7977702,2.3331351 9.3560767,2.4482226 8.7839255,2.5296041 8.3415866,2.5726905 7.6671743,2.6383823 7.0167938,2.6595538 6.3390869,2.6566346 6.0268968,2.6552853 5.7149338,2.639595 5.4028572,2.6310748 5.039923,2.6097346 4.4569297,2.583069 4.0740404,2.5362732 3.975963,2.5242865 3.8742032,2.5190152 3.7826627,2.481824 3.7619877,2.473424 3.8499427,2.423218 3.8338657,2.438695 3.5666148,2.6959646 2.9957064,2.8378416 3.0290407,3.2072999 3.0551498,3.4966771 3.604588,3.1271225 3.8923618,3.0870336 5.445842,2.9062988 7.0052128,2.7815221 8.565381,2.6759084 c 1.2185198,-0.082486 2.35702,-0.1479725 3.575749,-0.1992131 0.510621,-0.021469 1.021548,-0.034941 1.532322,-0.052412 1.286638,-0.03085 2.576232,-0.037368 3.861036,0.050767 0.397627,0.027277 0.578323,0.051782 0.953544,0.095053 0.759492,0.075118 0.776212,0.1033315 1.688548,-0.7336597 0.07392,-0.067813 -0.16677,-0.1216925 -0.264796,-0.1429852 -0.162411,-0.035278 -1.144728,-0.00291 -1.184584,-0.00212 -0.3331,0.015451 -0.666291,0.029054 -0.999301,0.046352 -0.425999,0.022128 -0.851797,0.047949 -1.277696,0.071924 -0.502008,0.027555 -1.003923,0.056867 -1.506025,0.082664 -1.703623,0.087529 -3.407981,0.1556454 -5.1125345,0.221764 -0.4946814,0.015024 -0.9893631,0.030047 -1.4840447,0.045071 0,0 -0.52352,0.3842704 -0.52352,0.3842704 v 0 c 0.5209786,-0.034501 1.0419572,-0.069001 1.5629356,-0.1035 0.5682115,-0.024688 1.1362356,-0.054148 1.7046346,-0.074064 1.121562,-0.039297 2.174829,-0.05674 3.295447,-0.066241 0.83868,-0.00711 1.70792,-0.010831 2.548307,0.014201 0.290607,0.00866 0.580812,0.027706 0.871218,0.04156 0.199557,0.019828 0.399998,0.032191 0.598673,0.059483 0.117303,0.016114 0.229992,0.062644 0.34813,0.070582 0.02961,0.00199 0.05262,-0.02745 0.07853,-0.041915 0.404448,-0.2258161 0.81855,-0.4352836 1.212519,-0.67892 0.153015,-0.094626 -0.88547,0.3349753 -0.534959,0.071605 -0.62216,3.227e-4 -1.244579,-0.00629 -1.866595,0.011299 -1.158133,0.032747 -2.313725,0.1200524 -3.468603,0.208895 C 11.039752,2.2740788 7.9000008,2.4752357 4.7561976,2.4511389 3.5638583,2.4082069 4.1620003,2.3135428 2.598104,3.2546059 c -0.035464,0.021341 0.082605,-0.00538 0.1238981,-0.00822 0.1359717,-0.00932 0.2717191,-0.02267 0.4078957,-0.028255 0.4959762,-0.020341 0.98983,-0.016124 1.4862672,-0.017584 0.1168223,9.261e-4 1.8627465,0.014848 1.9616115,0.014637 C 7.3141326,3.2135982 8.053063,3.204269 8.7845203,3.1096238 8.9051179,3.0940187 9.0242751,3.0687999 9.1441525,3.0483878 9.6113977,2.7708423 10.108999,2.5389804 10.545888,2.2157507 c 0.04714,-0.034877 -0.0016,-0.1326208 -0.04728,-0.1694469 -0.0521,-0.042048 -0.131795,-0.028334 -0.198745,-0.029093 -0.125649,-0.00142 -0.251114,0.011631 -0.3762933,0.022579 C 9.5563107,2.0719109 8.9835425,2.1451725 8.6362716,2.1873151 8.3537114,2.2144891 8.0717124,2.2483183 7.7885913,2.2688372 7.1614169,2.3142911 6.6893021,2.32625 6.064633,2.3120954 5.6654392,2.3030498 5.3211089,2.2824795 4.931697,2.2303411 4.8515404,2.2196091 4.7726433,2.2009656 4.6931164,2.1862779 c 0,0 -1.1763269,0.8471898 -1.1763269,0.8471898 z" />
    <path
       style="fill:#d40000;stroke-width:0.036;stroke-miterlimit:0"
       id="path17"
       d="m 2.6707364,15.535376 c 0.014018,0.04421 0.031707,0.08743 0.042052,0.132641 0.051301,0.224233 0.067524,0.401916 0.075626,0.638798 0.012994,0.379915 -0.00111,0.698161 -0.034283,1.079618 -0.016833,0.193534 -0.043282,0.38611 -0.064923,0.579165 -0.02669,0.170229 -0.051463,0.34077 -0.08007,0.510687 -0.022037,0.130894 -0.045218,0.261636 -0.07185,0.391672 -0.016272,0.07945 -0.036702,0.158014 -0.056819,0.236583 -0.00722,0.02819 -0.050863,0.09726 -0.025162,0.0836 1.4055435,-0.746656 1.3372157,-0.2758 1.322177,-1.041788 0.00505,-0.852493 -0.1237657,-1.696811 -0.2254147,-2.540828 -0.034452,-0.286067 -0.066939,-0.572367 -0.1004083,-0.858551 0,0 -0.9028946,0.472775 -0.9028946,0.472775 v 0 c 0.030549,0.286817 0.068607,0.572934 0.091646,0.860452 0.058649,0.7319 0.081563,1.477313 0.00221,2.208931 -0.01643,0.151471 -0.047913,0.300929 -0.071869,0.451393 -0.2050684,0.730329 -0.1847892,0.364631 1.1886484,-0.247366 0.012925,-0.0058 -0.037588,0.0069 -0.041941,-0.0066 -0.019928,-0.06164 -0.020905,-0.128269 -0.022588,-0.193029 -0.0031,-0.119425 0.0014,-0.239033 0.00826,-0.358303 0.00946,-0.16455 0.027104,-0.328527 0.040655,-0.49279 0.020066,-0.193119 0.039135,-0.386344 0.060202,-0.579357 0.073493,-0.673339 0.1686835,-1.347447 0.1641787,-2.026323 0,0 -1.2974253,0.698576 -1.2974253,0.698576 z" />
  </g>
</svg>
