<?xml version="1.0" encoding="UTF-8" standalone="no"?>
<svg
   xmlns:dc="http://purl.org/dc/elements/1.1/"
   xmlns:cc="http://creativecommons.org/ns#"
   xmlns:rdf="http://www.w3.org/1999/02/22-rdf-syntax-ns#"
   xmlns:svg="http://www.w3.org/2000/svg"
   xmlns="http://www.w3.org/2000/svg"
   xmlns:sodipodi="http://sodipodi.sourceforge.net/DTD/sodipodi-0.dtd"
   xmlns:inkscape="http://www.inkscape.org/namespaces/inkscape"
   width="50mm"
   height="50mm"
   viewBox="0 0 50 50"
   version="1.1"
   id="svg8"
   inkscape:version="1.0.2-2 (e86c870879, 2021-01-15)"
   sodipodi:docname="checkbox-blackChecked2.svg">
  <defs
     id="defs2" />
  <sodipodi:namedview
     id="base"
     pagecolor="#ffffff"
     bordercolor="#666666"
     borderopacity="1.0"
     inkscape:pageopacity="0.0"
     inkscape:pageshadow="2"
     inkscape:zoom="3.959798"
     inkscape:cx="103.67625"
     inkscape:cy="89.260113"
     inkscape:document-units="mm"
     inkscape:current-layer="layer1"
     inkscape:document-rotation="0"
     showgrid="false"
     inkscape:window-width="1465"
     inkscape:window-height="1040"
     inkscape:window-x="2076"
     inkscape:window-y="0"
     inkscape:window-maximized="0" />
  <metadata
     id="metadata5">
    <rdf:RDF>
      <cc:Work
         rdf:about="">
        <dc:format>image/svg+xml</dc:format>
        <dc:type
           rdf:resource="http://purl.org/dc/dcmitype/StillImage" />
        <dc:title />
      </cc:Work>
    </rdf:RDF>
  </metadata>
  <g
     inkscape:label="Warstwa 1"
     inkscape:groupmode="layer"
     id="layer1">
    <path
       style="opacity:0.99;fill:#333333;fill-opacity:1;stroke:#000000;stroke-width:0"
       id="path857"
       d="M 8.2378478,8.368826 C 9.0475627,14.508465 8.9281539,20.72401 8.870625,26.90128 8.79955,31.574872 8.6178402,36.246876 8.3671367,40.914132 c -0.049561,0.922655 -0.1086925,1.844794 -0.1712984,2.766655 -0.1135452,1.671926 -0.1431563,0.935847 -0.099919,1.704515 0.8113276,-0.797018 1.8975025,-1.388222 2.4339827,-2.391056 0.326093,-0.609563 -0.0336,-1.382215 -0.04566,-2.073415 -0.01696,-0.972905 -0.03029,-1.945878 -0.0414,-2.91887 -0.04077,-3.569798 -0.0068,-7.129264 0.08676,-10.697879 0.0491,-1.214535 0.115155,-3.59823 0.2656,-4.921239 0.04446,-0.391019 0.08049,-0.791531 0.217715,-1.160368 0.04167,-0.112011 0.385676,-0.282321 0.29162,-0.208585 -0.738027,0.578578 -1.4825141,1.148867 -2.2237708,1.7233 0,0 2.3391678,-1.308102 2.3391678,-1.308102 v 0 c -0.882231,0.228067 -1.7852237,0.387189 -2.6466922,0.684204 -0.074723,0.02576 -0.022035,0.157014 -0.02245,0.236053 -0.00185,0.353457 0.00917,0.706867 0.015634,1.06027 0.068917,3.765374 0.018113,0.130033 0.072933,4.752698 -0.00807,4.587626 -0.020428,9.192289 -0.3608785,13.770152 -0.054384,0.731277 -0.743363,1.674358 -0.2207836,2.188787 0.5258763,0.517673 1.4671722,-0.159798 2.2007583,-0.239697 -0.5334725,0.333061 -0.280019,0.255445 -0.397653,-1.148619 -0.07294,-0.870609 -0.096726,-1.744957 -0.1163157,-2.618399 -0.055535,-2.476045 -0.021296,-6.125639 0.022019,-8.516125 0.032133,-1.773383 0.087859,-3.546261 0.1317887,-5.319392 0.210544,-6.403912 0.415141,-12.807887 0.607877,-19.2123112 0,0 -2.468327,1.3021172 -2.468327,1.3021172 z" />
    <path
       style="opacity:0.99;fill:#333333;fill-opacity:1;stroke:#000000;stroke-width:0"
       id="path895"
       d="m 40.742634,42.184628 c 0.02468,-0.483239 0.06463,-0.965755 0.07403,-1.44971 0.0579,-2.980693 -0.06314,-5.977889 -0.118743,-8.956837 -0.118801,-6.364723 -0.0459,-2.515155 -0.173777,-9.192215 -0.09654,-5.380784 -0.287967,-10.757652 -0.531637,-16.1318646 0,0 2.278277,1.0574777 2.278277,1.0574777 v 0 C 42.166117,12.821394 42.164209,18.13346 42.37545,23.440845 c 0.251172,6.694183 0.567979,13.387567 1.166957,20.054079 0,0 -2.799777,-1.310296 -2.799777,-1.310296 z" />
    <path
       style="fill:#333333;fill-opacity:0.992157;stroke-width:0.036;stroke-miterlimit:0"
       id="path13"
       d="m 7.0888404,9.3888424 c 0.082084,0.025524 0.161135,0.064549 0.2462504,0.076573 0.4179334,0.059041 0.9582324,0.00725 1.3497451,-0.032087 0.4506251,-0.045275 0.8996264,-0.1056643 1.3487421,-0.1640436 5.461865,-0.709971 -2.2337136,0.2552981 4.275872,-0.5533403 2.865372,-0.325393 5.743719,-0.5278088 8.625262,-0.6343695 1.65822,-0.061322 3.530339,-0.093567 5.19656,-0.063417 0.751211,0.013594 1.501693,0.05411 2.252541,0.081165 1.900306,0.092136 3.793297,0.2910118 5.674442,0.5722189 2.64047,0.3947168 0.08158,0.042805 2.234028,0.3672549 0.208603,0.031444 0.418391,0.054447 0.627584,0.08167 0.08884,2.352e-4 0.19351,0.051338 0.266504,7.144e-4 C 39.97802,8.5720467 40.859188,8.094972 41.471103,7.3507848 41.611055,7.1805826 41.082788,7.1358177 40.8722,7.0709469 40.577198,6.9800723 40.27058,6.9279515 39.964664,6.8867286 c -1.023652,-0.1379397 -1.56029,-0.096341 -2.623011,-0.094081 -0.58158,0.032355 -1.163746,0.055522 -1.744741,0.097066 -2.51504,0.1798388 -5.022345,0.4653198 -7.534177,0.6826027 -3.112534,0.2692456 -3.013392,0.2450124 -6.136,0.4434078 -2.367736,0.1276242 -4.739371,0.1413251 -7.108569,0.057905 -0.462955,-0.016301 -0.925759,-0.037897 -1.388192,-0.065262 -0.902356,-0.053397 -0.637936,-0.00489 -1.203374,-0.1488741 -0.6796,0.5563774 -1.632156,0.8906385 -2.0388,1.6691324 -0.1902236,0.3641714 0.817694,-0.08166 1.227173,-0.115324 0.772779,-0.063532 1.546038,-0.1212649 2.319471,-0.1762551 8.292579,-0.5895919 -1.974262,0.1691018 7.704228,-0.526974 1.556827,-0.1119669 3.113024,-0.2325204 4.669535,-0.3487807 1.452359,-0.097215 2.904718,-0.1944301 4.357076,-0.2916451 0,0 0.435158,-0.3209983 0.435158,-0.3209983 v 0 C 29.424077,7.8638298 27.947712,7.9790106 26.471348,8.0941914 22.716344,8.2512079 21.789561,8.3505928 18.15878,8.2836855 17.1795,8.2656409 16.200878,8.2147533 15.223274,8.1547167 14.606614,8.1168464 13.991279,8.05739 13.377139,7.9900353 13.090642,7.9586142 12.785925,7.7414537 12.522555,7.8585197 c -0.915713,0.4070294 -1.682633,1.088836 -2.5239499,1.6332541 0.1876679,-0.03796 0.3729819,-0.090382 0.5630029,-0.1138785 0.63149,-0.078087 2.211439,-0.1591776 2.725226,-0.1879259 2.534001,-0.1417865 5.068612,-0.272982 7.602812,-0.411113 2.00379,-0.1157603 4.007451,-0.2337425 6.011266,-0.3490683 2.340219,-0.1346866 4.681725,-0.2732886 7.025899,-0.3186152 0.534303,-0.010332 1.068787,-0.00565 1.603182,-0.00848 0.913016,0.045192 1.475671,0.02904 2.34831,0.221687 0.249435,0.055066 0.493267,0.1372132 0.729948,0.2333011 0.125283,0.050863 0.224933,0.2566096 0.349962,0.2051233 0.866915,-0.3569878 1.643845,-0.9021339 2.460582,-1.3624817 0.12283,-0.069232 -0.252306,0.1259406 -0.378462,0.1889112 -0.256472,0.013732 -0.512575,0.041578 -0.769414,0.041192 C 39.599242,7.6294158 38.343845,7.5312238 37.729197,7.4847124 35.745721,7.3346193 33.764799,7.1347988 31.774569,7.093237 30.989365,7.088817 30.204119,7.070658 29.41896,7.079974 c -1.49682,0.017759 -3.904717,0.123 -5.374897,0.1875731 -2.782447,0.1222108 -5.563839,0.2665275 -8.344788,0.4187278 -0.719384,0.042707 -1.438604,0.088284 -2.158153,0.1281202 -0.549216,0.030407 -1.098431,0.062031 -1.648104,0.082607 -0.756624,0.028323 -1.553877,0.077374 -2.2992529,-0.1006604 0,0 -2.5049247,1.5925101 -2.5049247,1.5925101 z" />
    <path
       style="fill:#333333;fill-opacity:0.992157;stroke-width:0.036;stroke-miterlimit:0"
       id="path25"
       d="m 6.3953291,12.053052 c 0.2222672,-0.06697 0.4428062,-0.139975 0.6668019,-0.200917 0.8103261,-0.220468 2.1795142,-0.543208 2.9213648,-0.720401 2.4289182,-0.580153 4.8602432,-1.1484258 7.2945702,-1.7054086 0,0 1.244167,-0.9469234 1.244167,-0.9469234 v 0 c -0.833506,0.18629 -1.66509,0.3813945 -2.500517,0.5588696 -2.259338,0.4799653 -4.537948,0.9136213 -6.8314111,1.1979704 -0.1669214,0.0207 -0.3347797,0.03297 -0.5021697,0.04945 0,0 -2.2928061,1.767359 -2.2928061,1.767359 z" />
    <path
       style="fill:#333333;fill-opacity:0.992157;stroke-width:0.036;stroke-miterlimit:0"
       id="path27"
       d="M 16.667218,9.7473859 C 16.849924,9.6883629 17.03016,9.62106 17.215337,9.5703172 18.91172,9.1054662 20.6534,8.7850394 22.383205,8.4782064 c 2.503818,-0.444128 2.696312,-0.4518846 5.222769,-0.8191905 2.856788,-0.3900257 5.726776,-0.6937073 8.606118,-0.8535096 0.493654,-0.027398 0.987856,-0.043801 1.481785,-0.065701 0,0 1.720988,-1.2694507 1.720988,-1.2694507 v 0 c -1.497888,0.1468093 -1.949712,0.1859322 -3.502734,0.3614877 -1.928815,0.218036 -2.559947,0.3022963 -4.528055,0.5646452 -0.851117,0.1134536 -1.701742,0.2305674 -2.552613,0.3458512 -2.05454,0.2762919 -2.986417,0.405797 -5.019185,0.6631948 -1.470733,0.1862304 -2.944202,0.3701139 -4.42023,0.5114107 -0.135157,0.012938 -0.270853,0.019444 -0.406279,0.029168 0,0 -2.318551,1.8012735 -2.318551,1.8012737 z" />
    <path
       style="fill:#333333;fill-opacity:0.992157;stroke-width:0.036;stroke-miterlimit:0"
       id="path41"
       d="M 9.0096585,43.812885 C 8.0306364,44.387076 7.0330903,44.93079 6.072592,45.535458 5.8523473,45.674107 6.5391831,45.302011 6.7840888,45.21396 c 0.3868277,-0.139078 0.7817871,-0.256297 1.1799385,-0.35854 0.5706753,-0.14655 1.1471508,-0.270359 1.7246115,-0.387344 1.8331862,-0.37138 3.1029652,-0.557387 4.9838132,-0.863653 0.992844,-0.133488 1.983726,-0.282469 2.97853,-0.40046 2.356085,-0.279448 3.996799,-0.421307 6.370751,-0.530117 2.031072,-0.09309 4.052405,-0.10904 6.084839,-0.09191 0.880777,0.0074 1.761294,0.03353 2.641941,0.05029 1.878042,0.04724 3.756763,0.126024 5.628137,0.296617 0.347261,0.03166 0.693357,0.07499 1.040035,0.112477 0,0 2.544704,-1.840458 2.544704,-1.840458 v 0 c -2.536859,0.122777 -5.074406,0.234429 -7.614358,0.269298 -1.388261,0.03235 -4.505627,0.103363 -5.84616,0.14146 -2.284585,0.06493 -4.056027,0.115901 -6.33719,0.260757 -1.013337,0.06435 -2.025418,0.147783 -3.037163,0.233612 -0.933035,0.07915 -1.864653,0.174196 -2.79698,0.261294 -1.4641,0.138613 -2.928913,0.26964 -4.392897,0.409469 -0.478497,0.0457 -0.957314,0.089 -1.434704,0.14509 -0.07307,0.0086 -1.2878747,0.151469 -1.5187868,0.27419 -1.2188039,0.647753 -2.3918326,1.378188 -3.5877487,2.067282 0,0 3.614257,-1.45043 3.614257,-1.450429 z" />
    <path
       style="fill:#333333;fill-opacity:0.992157;stroke-width:0.036;stroke-miterlimit:0"
       id="path45"
       d="m 42.31936,40.852473 c -0.08581,0.02397 -0.170579,0.05202 -0.257429,0.07188 -0.793496,0.181502 -1.608608,0.284896 -2.413637,0.394822 -1.517981,0.207282 -1.876891,0.244967 -3.48778,0.442296 -4.225724,0.504542 -8.469831,0.872699 -12.725416,0.983258 -0.886791,0.02304 -1.774032,0.02297 -2.661048,0.03446 -2.247429,-7.6e-5 -4.496826,-0.04066 -6.738241,-0.216818 -0.497202,-0.03908 -0.99454,-0.08185 -1.488867,-0.148016 -0.256609,-0.03435 -0.520356,-0.247583 -0.761434,-0.153196 -1.144452,0.448088 -2.1718412,1.151223 -3.2577618,1.726835 0.4399422,0.11816 0.865166,0.326292 1.3198268,0.354481 0.736673,0.04568 1.473077,-0.09608 2.210105,-0.135615 1.000186,-0.05365 2.000954,-0.09582 3.001421,-0.143931 2.055955,-0.09886 5.538566,-0.269618 7.557133,-0.356253 1.308624,-0.05617 2.617599,-0.103839 3.9264,-0.155758 1.241369,-0.02872 2.482739,-0.05744 3.724108,-0.08617 0,0 0.966454,-0.706712 0.966454,-0.706712 v 0 c -1.268507,0.04837 -2.537015,0.09675 -3.805523,0.145124 -1.290445,0.03894 -2.58049,0.09471 -3.871332,0.116821 -2.427325,0.04157 -4.500322,0.03685 -6.908701,-0.107754 -0.829693,-0.04982 -1.659272,-0.115837 -2.48368,-0.221777 -0.529677,-0.06807 -1.040696,-0.268652 -1.573829,-0.299624 -0.145014,-0.0084 -0.262953,0.123512 -0.394429,0.185272 -1.025356,0.539892 -2.157342,0.913428 -3.0760659,1.619675 -0.3074434,0.23634 0.767505,-0.119226 1.1545859,-0.142586 0.580048,-0.03501 1.161951,-0.02522 1.743012,-0.03229 2.376895,-0.02889 4.754196,-0.0083 7.130916,-0.05649 2.186335,-0.04074 3.201793,-0.05023 5.389041,-0.128854 3.168546,-0.113898 6.330626,-0.344543 9.496988,-0.502299 1.319146,-0.0488 2.636493,-0.09179 3.956468,-0.104891 0.331311,-0.0033 0.662707,-0.01093 0.99397,-0.0044 0.06245,0.0013 0.124677,0.0078 0.187016,0.01177 0,0 3.147729,-2.383287 3.147729,-2.383287 z" />
    <path
       style="fill:#333333;fill-opacity:0.992157;stroke-width:0.036;stroke-miterlimit:0"
       id="path55"
       d="m 10.722905,18.361505 c -0.16553,-0.948419 -0.211961,-1.913588 -0.262144,-2.873425 -0.07004,-1.339615 -0.0528,-1.004939 -0.07273,-2.330128 0.03827,-0.721335 -0.03243,-1.503285 0.110481,-2.219268 0.0125,-0.06264 0.126961,-0.208175 0.07056,-0.178178 -2.7531847,1.464341 -2.8453809,0.574976 -2.4426287,1.977831 0.2138489,0.986801 0.3377859,1.98966 0.4431025,2.992857 0.098655,0.939745 0.1923176,1.994032 0.2473835,2.933461 0.032568,0.555608 0.04951,1.112021 0.074264,1.668032 0.021225,1.512229 0.043686,1.846799 -0.00365,3.338029 -0.014846,0.467645 -0.045571,0.93465 -0.068356,1.401975 0,0 1.9951467,-1.015033 1.9951467,-1.015033 v 0 c -0.05963,-1.554893 -0.09934,-3.110128 -0.08767,-4.66646 -0.0057,-0.567561 -0.0071,-1.135179 -0.01709,-1.702682 -0.01381,-0.788955 -0.05864,-2.214045 -0.08708,-3.023037 -0.01719,-0.488994 -0.07301,-1.809396 -0.08323,-2.340686 -0.0054,-0.281241 -0.0013,-0.562585 -0.002,-0.843877 0.09626,-1.477976 0.21598,-0.788382 -2.5738063,0.615802 -0.038244,0.01925 0.064905,0.06134 0.077873,0.102148 0.041498,0.130571 0.061584,0.267252 0.082558,0.402644 0.035409,0.228571 0.064295,0.45825 0.086473,0.688482 0.030395,0.315532 0.047464,0.632207 0.071196,0.948311 0.014399,0.378124 0.036784,0.756028 0.043195,1.134372 0.014428,0.851441 -0.00671,1.469755 -0.04241,2.313474 -0.023619,0.55827 -0.046065,1.037877 -0.1044522,1.586663 -0.014785,0.138953 -0.038844,0.276763 -0.058266,0.415144 0,0 2.6033085,-1.326451 2.6033085,-1.326451 z" />
    <path
       style="fill:#333333;fill-opacity:0.992157;stroke-width:0.036;stroke-miterlimit:0"
       id="path57"
       d="M 43.146953,7.9773215 C 42.48342,7.4733308 41.914087,6.8597673 41.378428,6.2250946 c -0.07994,-0.092675 -0.154983,-0.189811 -0.239819,-0.2780247 -0.905002,-0.9410308 -1.723363,0.4397627 -2.920251,1.301274 -0.07076,0.050933 0.05366,0.1675622 0.09867,0.2422279 0.04839,0.080268 0.118928,0.144897 0.178393,0.2173454 0.0914,0.076275 0.179403,0.1568188 0.274206,0.2288241 0.161367,0.122563 0.612032,0.4217744 0.766837,0.5327846 0.302834,0.217166 0.586756,0.4571201 0.891241,0.6716932 C 41.287591,8.6360512 42.233879,8.2552573 43.007359,7.6257154 43.125072,7.5299072 42.850355,7.365059 42.756949,7.2454301 42.523166,6.9460146 42.07615,6.5062515 41.819427,6.261133 41.388199,5.8493966 40.943596,5.4518946 40.507091,5.0457523 c 0,0 -2.136669,1.3201356 -2.136669,1.3201356 v 0 c 0.616294,0.5720699 1.202325,1.1062642 1.674813,1.8115838 0.09771,0.1458521 0.186208,0.2992763 0.255159,0.4607234 0.02769,0.06485 -0.03368,0.2374263 0.03097,0.2092688 0.857078,-0.373289 1.655238,-0.8694227 2.482858,-1.3041342 -0.08093,-0.012168 -0.168051,-0.00316 -0.24279,-0.036502 C 42.451964,7.4535288 41.930663,7.0659614 41.848188,7.0036356 41.53985,6.7706258 41.225713,6.5348635 40.975073,6.2378412 c -0.02869,-0.046166 -0.06927,-0.086803 -0.08606,-0.1384991 -0.0053,-0.016351 0.01786,-0.029388 0.02677,-0.044083 -0.827286,0.4584184 -1.654572,0.9168368 -2.481858,1.3752552 -0.03947,0.021378 0.05803,-0.084692 0.102865,-0.086928 0.07523,-0.00375 0.150072,0.03206 0.214482,0.071104 0.104291,0.063219 0.189185,0.1539547 0.283779,0.2309317 0.111474,0.1142799 0.225988,0.2256732 0.334425,0.3428395 0.449146,0.4852966 0.857009,1.0084397 1.262335,1.5301396 0,0 2.51514,-1.5412805 2.51514,-1.5412805 z" />
    <path
       style="fill:#333333;fill-opacity:0.992157;stroke-width:0.036;stroke-miterlimit:0"
       id="path36"
       d="m 33.320635,5.4620945 c -0.01434,0.07161 -0.02569,0.1438844 -0.04303,0.2148303 -0.142187,0.5819846 -0.327094,1.1566467 -0.513781,1.7251749 -0.332732,1.0132819 -0.470453,1.3868291 -0.843873,2.4523218 -1.085918,3.0146785 -2.094828,6.0556905 -3.095408,9.0994235 -1.424781,4.334134 -0.560758,1.662555 -1.967372,6.062714 -0.798664,2.565954 -1.569616,5.140503 -2.397677,7.697244 -0.386466,1.193262 -0.785797,2.382723 -1.177669,3.574264 -0.576514,1.777365 -0.902482,1.386334 3.326566,-1.097021 0.08442,-0.04957 -0.0276,-0.194358 -0.02924,-0.292245 -0.007,-0.418204 0.04822,-0.845514 0.08666,-1.258928 0.407,-2.998843 1.037801,-5.965584 1.76105,-8.902913 0.233561,-0.948556 0.486879,-1.892137 0.730317,-2.838205 1.09353,-4.134491 2.602184,-8.14461 4.427458,-12.0096639 0.938302,-1.9868763 1.468532,-2.9257121 2.483871,-4.8250032 1.373095,-2.3906636 0.705681,-1.2667639 1.992609,-3.3774007 0,0 -2.557016,1.1489987 -2.557016,1.1489987 v 0 c -0.872865,1.9501852 -0.402203,0.9080201 -1.415169,3.1250564 -0.778983,1.7204811 -1.315058,2.8802697 -2.06543,4.6451997 -1.676617,3.943533 -3.171536,7.962669 -4.460973,12.049696 -0.640476,2.010424 -1.147546,3.605782 -1.787767,5.601637 -0.732573,2.283759 -1.481023,4.562819 -2.162667,6.862529 -0.02869,0.09584 -0.356992,1.213057 -0.440024,1.428637 -0.03961,0.102832 -0.252509,0.335396 -0.150174,0.294515 1.194649,-0.477239 2.331629,-1.087792 3.497444,-1.631685 -0.024,-0.0317 -0.06166,-0.05672 -0.07203,-0.09511 -0.0305,-0.112925 -0.03171,-0.231783 -0.04756,-0.347673 -3.44e-4,-0.2149 -0.01052,-0.430007 -0.0011,-0.6447 0.0354,-0.803981 0.138684,-1.676556 0.256333,-2.462718 0.370843,-2.478058 0.920859,-4.925967 1.647084,-7.324731 0.335177,-1.026052 0.652646,-2.058058 1.005528,-3.078155 0.676148,-1.954586 1.472883,-4.011296 2.249572,-5.93003 0.910799,-2.250036 1.876965,-4.478744 2.941439,-6.6607259 C 34.9311,7.7779704 35.366131,6.88977 35.798042,6.0000522 36.11001,5.3574156 36.406687,4.7047345 36.744115,4.0746497 c 0.04671,-0.087226 0.09815,-0.1718403 0.14722,-0.2577603 0,0 -3.57069,1.6452051 -3.57069,1.6452051 z" />
    <path
       style="fill:#333333;fill-opacity:0.992157;stroke-width:0.036;stroke-miterlimit:0"
       id="path54"
       d="m 26.823953,37.663945 c -0.17807,-0.305173 -0.162648,-0.288377 -0.412662,-0.651947 -0.661729,-0.962286 -1.353888,-1.903489 -2.025681,-2.858613 -0.322248,-0.458158 -0.637777,-0.921004 -0.956665,-1.381506 -0.32187,-0.47557 -0.647446,-0.948653 -0.965612,-1.426708 -0.735526,-1.105159 -0.958614,-1.454163 -1.619495,-2.552731 -0.415789,-0.691161 -0.808282,-1.394982 -1.236217,-2.078697 -0.975834,-1.17121 -0.58822,-0.83587 -3.485882,1.971577 -0.182582,0.176898 0.305158,0.407628 0.475976,0.595908 0.283622,0.312619 2.088509,2.109796 2.195668,2.221312 0.502668,0.523097 0.989352,1.061321 1.484028,1.591982 1.899677,2.232866 1.005492,1.115875 2.691735,3.343606 0,0 2.124375,-1.271918 2.124375,-1.271918 v 0 c -1.847214,-2.120673 -0.927224,-1.019554 -2.754238,-3.308141 -0.916565,-1.264426 -1.441468,-1.897319 -2.176358,-3.228994 -0.19312,-0.349948 -0.367944,-0.712152 -0.504489,-1.087802 -0.06684,-0.183899 0.08436,-0.640628 -0.101099,-0.578245 -1.174746,0.395158 -2.19736,1.147308 -3.29604,1.720961 0.08081,-0.02011 0.161628,-0.04021 0.242441,-0.06031 0.146964,0.08619 0.306883,0.153369 0.440892,0.25858 0.484281,0.380207 0.964383,0.955522 1.344363,1.415008 1.009524,1.220761 1.9263,2.514512 2.755125,3.864514 0.738399,1.280877 0.892003,1.473783 1.487884,2.777332 0.160945,0.352083 0.308489,0.710496 0.444626,1.072893 0.146085,0.388882 0.295467,0.831728 0.334141,1.255771 0.006,0.06588 -0.01446,0.131516 -0.02169,0.197273 0,0 3.534871,-1.801106 3.534871,-1.801106 z" />
    <path
       style="fill:#333333;fill-opacity:0.992157;stroke-width:0.036;stroke-miterlimit:0"
       id="path60"
       d="m 27.002271,37.435065 c -0.02585,-0.08987 -0.04236,-0.182021 -0.06551,-0.272542 -0.06798,-0.265756 -0.07979,-0.261417 -0.138547,-0.550977 -0.06212,-0.306146 -0.06362,-0.375809 -0.09951,-0.684847 -0.04001,-0.529307 -0.07663,-1.059201 -0.04177,-1.58949 0,0 -3.406746,1.714013 -3.406746,1.714013 v 0 c -0.02038,0.544896 0.01978,1.085623 0.128101,1.621089 0.07474,0.531254 0.14534,1.066948 0.117399,1.60473 0,0 3.506588,-1.841976 3.506588,-1.841976 z" />
  </g>
</svg>
