<?xml version="1.0" encoding="UTF-8" standalone="no"?>
<svg
   xmlns:dc="http://purl.org/dc/elements/1.1/"
   xmlns:cc="http://creativecommons.org/ns#"
   xmlns:rdf="http://www.w3.org/1999/02/22-rdf-syntax-ns#"
   xmlns:svg="http://www.w3.org/2000/svg"
   xmlns="http://www.w3.org/2000/svg"
   xmlns:sodipodi="http://sodipodi.sourceforge.net/DTD/sodipodi-0.dtd"
   xmlns:inkscape="http://www.inkscape.org/namespaces/inkscape"
   width="50mm"
   height="50mm"
   viewBox="0 0 50 50"
   version="1.1"
   id="svg8"
   sodipodi:docname="checkbox-blackChecked.svg"
   inkscape:version="1.0.2-2 (e86c870879, 2021-01-15)">
  <defs
     id="defs2" />
  <sodipodi:namedview
     id="base"
     pagecolor="#ffffff"
     bordercolor="#666666"
     borderopacity="1.0"
     inkscape:pageopacity="0.0"
     inkscape:pageshadow="2"
     inkscape:zoom="1.979899"
     inkscape:cx="62.672961"
     inkscape:cy="105.68667"
     inkscape:document-units="mm"
     inkscape:current-layer="layer1"
     inkscape:document-rotation="0"
     showgrid="false"
     inkscape:window-width="1465"
     inkscape:window-height="1040"
     inkscape:window-x="2076"
     inkscape:window-y="0"
     inkscape:window-maximized="0" />
  <metadata
     id="metadata5">
    <rdf:RDF>
      <cc:Work
         rdf:about="">
        <dc:format>image/svg+xml</dc:format>
        <dc:type
           rdf:resource="http://purl.org/dc/dcmitype/StillImage" />
        <dc:title></dc:title>
      </cc:Work>
    </rdf:RDF>
  </metadata>
  <g
     inkscape:label="Warstwa 1"
     inkscape:groupmode="layer"
     id="layer1">
    <path
       style="opacity:0.99;fill:#333333;fill-opacity:1;stroke:#000000;stroke-width:0"
       id="path857"
       d="M 8.2378478,8.368826 C 9.0475627,14.508465 8.9281539,20.72401 8.870625,26.90128 8.79955,31.574872 8.6178402,36.246876 8.3671367,40.914132 c -0.049561,0.922655 -0.1086925,1.844794 -0.1712984,2.766655 -0.1135452,1.671926 -0.1431563,0.935847 -0.099919,1.704515 0.8113276,-0.797018 1.8975025,-1.388222 2.4339827,-2.391056 0.326093,-0.609563 -0.0336,-1.382215 -0.04566,-2.073415 -0.01696,-0.972905 -0.03029,-1.945878 -0.0414,-2.91887 -0.04077,-3.569798 -0.0068,-7.129264 0.08676,-10.697879 0.0491,-1.214535 0.115155,-3.59823 0.2656,-4.921239 0.04446,-0.391019 0.08049,-0.791531 0.217715,-1.160368 0.04167,-0.112011 0.385676,-0.282321 0.29162,-0.208585 -0.738027,0.578578 -1.4825141,1.148867 -2.2237708,1.7233 0,0 2.3391678,-1.308102 2.3391678,-1.308102 v 0 c -0.882231,0.228067 -1.7852237,0.387189 -2.6466922,0.684204 -0.074723,0.02576 -0.022035,0.157014 -0.02245,0.236053 -0.00185,0.353457 0.00917,0.706867 0.015634,1.06027 0.068917,3.765374 0.018113,0.130033 0.072933,4.752698 -0.00807,4.587626 -0.020428,9.192289 -0.3608785,13.770152 -0.054384,0.731277 -0.743363,1.674358 -0.2207836,2.188787 0.5258763,0.517673 1.4671722,-0.159798 2.2007583,-0.239697 -0.5334725,0.333061 -0.280019,0.255445 -0.397653,-1.148619 -0.07294,-0.870609 -0.096726,-1.744957 -0.1163157,-2.618399 -0.055535,-2.476045 -0.021296,-6.125639 0.022019,-8.516125 0.032133,-1.773383 0.087859,-3.546261 0.1317887,-5.319392 0.210544,-6.403912 0.415141,-12.807887 0.607877,-19.2123112 0,0 -2.468327,1.3021172 -2.468327,1.3021172 z" />
    <path
       style="opacity:0.99;fill:#333333;fill-opacity:1;stroke:#000000;stroke-width:0"
       id="path861"
       d="m 4.9624924,9.3671204 c 0.3051858,0.066237 0.6078601,0.1453422 0.915557,0.1987097 3.2227221,0.5589529 6.5097766,0.7848659 9.7685196,0.9960629 5.301498,0.343587 6.253598,0.333959 11.687331,0.522131 4.852191,0.07654 9.706732,0.259881 14.560513,0.185521 0.791308,-0.01212 1.582695,-0.03983 2.372487,-0.09026 0.273968,-0.01749 0.609513,0.06788 0.815742,-0.113319 C 45.641376,10.57504 45.977341,9.8775722 46.424691,9.2833776 45.495794,9.2241536 44.567646,9.1517064 43.638001,9.1057054 40.305466,8.9408041 37.293245,8.8754904 33.932833,8.7681934 28.686633,8.6006841 23.442651,8.399373 18.195431,8.2667794 c -4.335199,0.029592 -2.343944,-0.047642 -5.975698,0.1749123 0,0 -1.704606,1.2629296 -1.704606,1.2629296 v 0 c 3.922523,-0.4830321 1.785242,-0.2844181 6.418207,-0.522868 1.571615,-0.0063 3.143331,-0.037758 4.714846,-0.01891 3.52271,0.042249 7.658996,0.209568 11.167313,0.4088831 2.910916,0.1653757 6.170289,0.3783677 9.092035,0.7612806 0.788887,0.103389 1.567392,0.27463 2.351088,0.411945 C 45.20988,10.333196 46.179403,9.9612832 47.112412,9.5096826 47.471057,9.3360882 46.37719,9.8347002 45.985726,9.9089857 45.105735,10.075975 44.21088,10.160639 43.317855,10.229748 38.31782,10.616687 33.289901,10.486657 28.282902,10.400613 22.999782,10.138138 22.073365,10.170705 16.962182,9.6261895 13.973414,9.3077833 10.916853,8.938879 8.017739,8.0996524 7.7570427,8.0241869 7.5073173,7.9149894 7.2521066,7.8226578 c 0,0 -2.2896142,1.5444626 -2.2896142,1.5444626 z" />
    <path
       style="opacity:0.99;fill:#333333;fill-opacity:1;stroke:#000000;stroke-width:0"
       id="path875"
       d="m 6.6327456,44.752728 c 6.9399824,-1.182439 13.9245174,-2.088433 20.9332574,-2.748174 1.663578,-0.156594 3.329964,-0.2818 4.994947,-0.422699 3.569605,-0.253037 3.876326,-0.289528 7.146965,-0.473628 0.65116,-0.03665 1.302231,-0.0779 1.954104,-0.0984 1.023236,-0.03218 2.467808,0.349933 2.725152,-1.553961 0.07855,-0.581128 -1.157776,0.187288 -1.736664,0.280929 -7.525525,1.020144 -15.103125,1.636469 -22.686211,2.022758 -1.607183,0.08187 -3.215623,0.136822 -4.823435,0.205232 -3.129167,0.101778 -6.2578408,0.209593 -9.3853745,0.352589 0,0 -1.7471141,1.288529 -1.7471141,1.288529 v 0 c 3.3059544,-0.316182 6.6158426,-0.583448 9.9327086,-0.760291 8.932546,-0.506362 17.863349,-1.035063 26.787123,-1.680905 1.847064,-0.07156 2.139759,0.17127 3.818043,-1.674583 0.242673,-0.266901 -0.710692,0.125074 -1.067983,0.174774 -3.242945,0.451093 -6.508189,0.714888 -9.762807,1.061992 -3.529997,0.345482 -7.060996,0.680757 -10.590336,1.032894 -4.224583,0.421505 -8.444914,0.892201 -12.672677,1.281776 -0.5656449,0.05212 -1.1323229,0.09235 -1.6984844,0.138531 0,0 -2.121214,1.572641 -2.121214,1.572641 z" />
    <path
       style="opacity:0.99;fill:#333333;fill-opacity:1;stroke:#000000;stroke-width:0"
       id="path895"
       d="m 44.461548,41.804815 c -0.02224,-0.376891 -0.05824,-0.753218 -0.06671,-1.130667 -0.05217,-2.324722 0.05689,-4.662315 0.106994,-6.985676 0.107046,-4.964017 0.04136,-1.961636 0.156583,-7.169253 0.08699,-4.196617 0.259474,-8.39018 0.479034,-12.581671 0,0 -2.052852,0.824755 -2.052852,0.824755 v 0 c 0.09431,4.141344 0.09603,8.284366 -0.09431,12.423737 -0.22632,5.220971 -0.51178,10.44132 -1.051492,15.64071 0,0 2.522752,-1.021935 2.522752,-1.021935 z" />
    <path
       style="opacity:0.99;fill:#333333;fill-opacity:1;stroke:#000000;stroke-width:0"
       id="path901"
       d="m 17.609686,25.423988 c 1.735133,2.551352 3.346545,5.182697 4.920507,7.835567 0.455475,0.767692 0.871375,1.559582 1.355729,2.309389 0.35613,0.551308 1.100204,1.304821 1.691766,1.589116 1.728171,0.830531 3.423811,0.736662 4.793471,-1.765221 0.254468,-0.464823 0.517457,-1.437045 0.728944,-2.170307 0.314637,-1.090916 0.57182,-2.197618 0.848426,-3.298793 2.266027,-9.021056 -0.236007,0.689988 2.29778,-9.061381 1.662719,-5.864396 3.173006,-11.7936634 5.336787,-17.4997606 l -3.275702,1.1917501 v 0 C 34.805285,10.295962 33.4879,16.087208 31.776589,21.773547 c -0.779971,2.738074 -1.812549,6.453303 -2.689849,9.197424 -0.362519,1.133927 -0.716977,2.272899 -1.161673,3.377188 -0.294379,0.731006 -1.574425,1.52845 -1.051097,2.117651 0.552794,0.622374 1.702602,-0.162744 2.433354,-0.561407 0.345288,-0.188373 -0.756673,-0.165949 -1.135006,-0.248929 -0.440084,-0.487572 -0.932417,-0.932638 -1.320248,-1.462719 -0.527815,-0.721412 -0.95688,-1.510349 -1.41608,-2.277265 -1.573234,-2.627478 -3.037621,-5.324454 -4.351239,-8.091051 z"
       sodipodi:nodetypes="csssssccccscsssscsscc" />
  </g>
</svg>
