<?xml version="1.0" encoding="UTF-8" standalone="no"?>
<svg
   xmlns:dc="http://purl.org/dc/elements/1.1/"
   xmlns:cc="http://creativecommons.org/ns#"
   xmlns:rdf="http://www.w3.org/1999/02/22-rdf-syntax-ns#"
   xmlns:svg="http://www.w3.org/2000/svg"
   xmlns="http://www.w3.org/2000/svg"
   xmlns:sodipodi="http://sodipodi.sourceforge.net/DTD/sodipodi-0.dtd"
   xmlns:inkscape="http://www.inkscape.org/namespaces/inkscape"
   width="21mm"
   height="21mm"
   viewBox="0 0 21 21"
   version="1.1"
   id="svg8"
   inkscape:version="1.0.2-2 (e86c870879, 2021-01-15)"
   sodipodi:docname="checkbox4 — kopia.svg">
  <defs
     id="defs2" />
  <sodipodi:namedview
     id="base"
     pagecolor="#ffffff"
     bordercolor="#666666"
     borderopacity="1.0"
     inkscape:pageopacity="0.0"
     inkscape:pageshadow="2"
     inkscape:zoom="7.9195959"
     inkscape:cx="36.594646"
     inkscape:cy="46.714784"
     inkscape:document-units="mm"
     inkscape:current-layer="layer1"
     inkscape:document-rotation="0"
     showgrid="false"
     inkscape:window-width="1465"
     inkscape:window-height="1040"
     inkscape:window-x="1946"
     inkscape:window-y="0"
     inkscape:window-maximized="0" />
  <metadata
     id="metadata5">
    <rdf:RDF>
      <cc:Work
         rdf:about="">
        <dc:format>image/svg+xml</dc:format>
        <dc:type
           rdf:resource="http://purl.org/dc/dcmitype/StillImage" />
        <dc:title />
      </cc:Work>
    </rdf:RDF>
  </metadata>
  <g
     inkscape:label="Warstwa 1"
     inkscape:groupmode="layer"
     id="layer1">
    <path
       style="fill:#d40000;stroke-width:12.965"
       id="path887"
       d="m 2.0565729,18.270411 c 3.36191,-0.144172 6.720964,-0.355579 10.0786751,-0.575938 0.794708,-0.05185 1.589349,-0.104738 2.384123,-0.155537 0.6618,-0.0423 1.323129,-0.09376 1.985598,-0.123775 0.55355,-0.02508 1.754364,-0.08149 2.39527,0.0411 0.586393,0.112156 0.344061,0.166716 0.125825,0.283784 0.148929,-0.13924 0.645504,-0.372126 0.446786,-0.417725 -0.382399,-0.08774 -0.762066,0.18994 -1.148688,0.25667 -0.495684,0.08555 -0.995606,0.146206 -1.495759,0.199763 -1.853774,0.198499 -3.714456,0.252267 -5.576472,0.303427 -2.3263571,0.0057 -1.206505,0.01521 -3.3595891,-0.02315 0,0 -0.794956,0.576927 -0.794956,0.576927 v 0 c 2.2157447,-0.01514 1.069993,-0.0055 3.4372521,-0.02983 1.8283,-0.04299 3.657706,-0.08439 5.481992,-0.223244 0.202131,-0.01537 2.14381,-0.178266 2.489245,-0.306721 0.613182,-0.228023 1.170083,-0.585534 1.755124,-0.878301 0.01823,-0.100607 0.128669,-0.231261 0.05467,-0.301818 -0.120316,-0.114728 -0.320598,-0.09886 -0.486478,-0.109929 -0.348808,-0.02326 -0.699506,-0.0084 -1.048727,0.0075 -2.028497,0.09259 -4.04232,0.390843 -6.071367,0.478587 -3.1730503,0.1764 -6.3577101,0.357092 -9.5354961,0.198734 0,0 -1.117031,0.799465 -1.117031,0.799465 z" />
    <path
       style="fill:#d40000;stroke-width:12.965"
       id="path889"
       d="m 2.5169825,18.948513 c 2.592843,-0.240919 5.1823697,-0.518538 7.7730465,-0.782153 1.937914,-0.208751 3.881117,-0.375833 5.815282,-0.618741 0.392827,-0.242634 0.88401,-0.37228 1.178483,-0.727906 0.109104,-0.131763 -0.335243,-0.08523 -0.506304,-0.08387 -0.301924,0.0024 -0.60048,0.06387 -0.900795,0.09505 -0.467061,0.0485 -0.934146,0.09676 -1.401334,0.143986 -0.598355,0.06049 -1.196864,0.119452 -1.795296,0.179179 -0.656201,0.06663 -1.312404,0.13326 -1.968608,0.19989 -2.4964477,0.246729 -1.2895634,0.132022 -3.6204795,0.345879 0,0 -0.757375,0.562039 -0.757375,0.562039 v 0 c 2.3803721,-0.263303 1.156335,-0.134218 3.6723405,-0.385101 1.782601,-0.155708 1.908508,-0.1802 3.628665,-0.281147 0.429826,-0.02521 0.860002,-0.04426 1.290172,-0.06266 0.265141,-0.01135 0.532029,0.0035 0.795708,-0.02654 0.536831,-0.06114 0.931809,-0.820277 1.435666,-0.752465 -0.655328,0.157361 -1.32098,0.250254 -1.988349,0.343527 -1.36565,0.190871 -2.736003,0.344737 -4.106466,0.496213 -2.4724304,0.261467 -4.9521375,0.530246 -7.4405305,0.552844 0,0 -1.103826,0.801976 -1.103826,0.801976 z" />
    <path
       style="fill:#d40000;stroke-width:15.0512"
       id="path919"
       d="m 17.670213,1.9383629 c 0.162439,1.9681764 0.176278,3.9417201 0.188114,5.9128551 -0.0068,2.944434 -0.09836,5.88832 -0.263179,8.830263 -0.03951,0.666812 -0.08811,1.333307 -0.137619,1.999761 0,0 1.568535,-0.573701 1.568535,-0.573701 v 0 c -0.03124,-0.640539 -0.0596,-1.28116 -0.07363,-1.922042 -0.05384,-2.930117 0.01012,-5.859853 0.147167,-8.7885571 0.0555,-2.0210647 0.05962,-4.0444041 0.219048,-6.0630302 0,0 -1.648442,0.6044512 -1.648442,0.6044512 z" />
    <path
       style="fill:#d40000;stroke-width:0.036;stroke-miterlimit:0"
       id="path12"
       d="M 2.9907247,19.460787 C 2.8728917,18.438568 2.7331404,17.419051 2.6033419,16.398258 2.3688052,14.225259 2.2662982,12.036758 2.3064781,9.8512825 2.3139349,9.4456972 2.3327224,9.0403992 2.3458448,8.6349575 2.3824856,8.0761679 2.4214493,7.3153516 2.496037,6.7453632 2.5215269,6.5505775 2.5474318,6.3545011 2.6004802,6.1653531 2.6283149,6.0661066 2.8300057,5.8441392 2.7365805,5.8876869 1.401071,6.5101989 1.4172244,6.2751306 1.748875,6.9546163 c 0.061964,0.2194608 0.1349319,0.4361085 0.1858919,0.658382 0.1610599,0.7025005 0.2664902,1.4459614 0.3421687,2.1598512 0.1078326,1.0172055 0.1554847,1.8476235 0.1690337,2.8740235 0.00643,0.486952 -0.00843,0.973951 -0.012649,1.460927 -0.037566,1.11685 -0.1169186,2.233684 -0.2661753,3.341537 -0.027408,0.203438 -0.057428,0.406737 -0.09758,0.608048 -0.02155,0.108044 -0.1845782,0.370467 -0.087281,0.318784 C 2.4227416,18.142204 2.7764954,17.77268 3.1736009,17.470935 3.1436857,17.290541 3.11233,17.11038 3.0838555,16.929752 2.9869855,16.315258 2.8861893,15.614013 2.7978489,15.006876 2.6476295,13.97446 2.5230091,13.154319 2.4003942,12.108735 2.3369072,11.567357 2.2865591,11.024519 2.2296416,10.482412 2.0646721,8.5713628 1.9488716,6.6539367 1.9456025,4.7351336 1.9441964,3.9098142 1.959257,3.7172822 1.9908059,2.943965 2.0448531,2.2656182 2.0024294,2.568173 2.0981058,2.0337236 c 0,0 -1.1782583,0.5958793 -1.1782583,0.5958793 v 0 c 0.066725,0.4715876 0.02969,0.2021531 0.1089827,0.8085922 0.027514,0.2413704 0.057096,0.482514 0.082542,0.7241112 0.086791,0.8240251 0.1224021,1.2773069 0.1994653,2.128885 0.1345617,1.486957 0.2752539,2.9733674 0.4011963,4.4610957 0.1289111,1.550294 0.2613079,3.099471 0.3161232,4.654657 0.023943,0.679297 0.035905,1.38147 0.00526,2.062676 -0.00916,0.20366 -0.032935,0.406398 -0.049403,0.609597 0.3999737,-0.102543 0.8283645,-0.12752 1.1999212,-0.30763 0.075752,-0.03672 -0.047884,-0.162161 -0.058495,-0.245668 -0.022683,-0.178532 -0.032936,-0.358552 -0.041114,-0.538332 -0.01242,-0.272991 -0.015555,-0.546334 -0.020659,-0.81956 -0.019397,-1.03829 -0.015155,-1.279512 -0.017902,-2.372054 C 3.0390242,11.312453 3.0164399,8.8273887 2.8688281,6.34755 2.7759551,5.4782162 2.9361453,5.5614986 1.511694,6.4770471 1.4487,6.5175351 1.526596,6.6260983 1.531548,6.7008177 c 0.031125,0.469688 0.043109,0.8144978 0.055555,1.3035825 0.00854,0.3353821 0.012873,0.6708576 0.01931,1.0062863 0.00489,0.457033 0.021313,2.0708425 0.029418,2.4930355 0.033996,1.77097 0.1204883,3.540241 0.1640034,5.310924 0.015115,1.105806 0.061969,2.227456 -0.1346878,3.321556 0,0 1.3255766,-0.675415 1.3255766,-0.675415 z" />
    <path
       style="fill:#d40000;stroke-width:0.036;stroke-miterlimit:0"
       id="path30"
       d="M 1.7079332,3.4790575 C 1.7679057,3.4500833 1.8256635,3.4159877 1.8878506,3.3921348 2.2343961,3.2592113 2.5952286,3.1686912 2.9570645,3.0888059 3.3056671,3.011842 3.6558225,2.9415684 4.0071979,2.8784605 5.2564887,2.6540849 5.6505458,2.6179513 6.9481511,2.4457183 9.0512158,2.1945705 11.166478,2.0328244 13.284898,2.0068063 c 1.036791,-0.012734 1.315083,0.00732 2.313115,0.0411 0.699824,0.027408 1.397588,0.087288 2.094096,0.1583822 0.106261,0.010846 0.212469,0.022225 0.318637,0.033945 0.05121,0.00565 0.103295,0.0066 0.153504,0.018174 0.01198,0.00276 0.01883,0.015808 0.02825,0.023712 0.357544,-0.296362 0.759862,-0.5458033 1.072632,-0.889086 0.064,-0.070245 -0.189691,0.012857 -0.284107,0.023635 -0.154406,0.017626 -0.308158,0.040583 -0.462146,0.061554 -0.901695,0.1227988 -1.803648,0.2387272 -2.706923,0.3496274 -2.009141,0.2483559 -4.023172,0.4604293 -6.0419521,0.6135933 -1.3179067,0.099989 -1.7506923,0.1149862 -3.047897,0.182283 -1.2867833,0.06425 -2.574739,0.091313 -3.8629648,0.090369 0,0 -0.9049304,0.6648373 -0.9049304,0.6648373 v 0 C 3.3622959,3.2386629 4.7718773,3.1140804 6.1838974,3.019892 9.1526089,2.8052762 12.1207,2.5824531 15.08908,2.3635169 c 0.844586,-0.053468 1.033887,-0.068965 1.828579,-0.107489 0.286767,-0.013901 0.661856,-0.03112 0.960708,-0.032028 0.06808,-2.069e-4 0.14537,0.040023 0.204162,0.00569 0.441451,-0.2577621 0.844456,-0.5763455 1.266684,-0.8645183 -0.0203,0.02116 -0.03354,0.05292 -0.06089,0.06348 -0.140151,0.054105 -0.531575,0.076348 -0.628904,0.080458 -0.19876,0.00839 -0.39782,0.00678 -0.596749,0.00865 -0.583253,0.0055 -1.166565,0.00321 -1.749799,0.011545 -1.081161,0.019091 -1.350758,0.016601 -2.470133,0.068672 -2.129189,0.099046 -4.2529983,0.2843842 -6.3766208,0.4625061 -1.0105274,0.090904 -1.7057968,0.1518799 -2.697086,0.246534 -0.5335432,0.050946 -0.9457756,0.085043 -1.4591176,0.1617077 -0.072027,0.010757 -0.3383039,0.062496 -0.4531648,0.084636 0,0 -1.1488156,0.9256885 -1.1488156,0.9256885 z" />
    <path
       style="fill:#d40000;stroke-width:0.036;stroke-miterlimit:0"
       id="path32"
       d="m 1.317567,3.1695122 c 0.814351,-0.076388 1.6331488,-0.079502 2.4503211,-0.074515 0.1439071,0.019457 0.2892689,-0.00742 0.4334385,0.00206 0.013295,8.731e-4 0.027332,0.020651 0.037941,0.012589 C 4.6159586,2.8233671 5.0079743,2.552649 5.3490812,2.2247764 5.4025392,2.1733924 5.2018321,2.2427385 5.128664,2.25476 5.0242342,2.2719177 4.9205083,2.2931138 4.8164305,2.3122907 4.1945149,2.4372842 3.565444,2.5269124 2.9328856,2.5757845 c -0.3943662,0.030469 -0.5105495,0.02866 -0.890179,0.037777 0,0 -1.0209622,0.749238 -1.0209622,0.749238 v 0 C 1.9304599,3.2994305 2.8406624,3.2431279 3.7433342,3.116084 3.8308642,3.107144 3.9182952,3.097185 4.0059236,3.089271 4.0560426,3.084741 4.1140893,3.105818 4.1565261,3.07877 4.5833305,2.806758 4.9827931,2.4940516 5.3967522,2.2028635 c 0.024667,-0.017351 -0.044095,0.043736 -0.072315,0.054371 -0.149439,0.056321 -0.3867211,0.071398 -0.530334,0.088538 -0.7635801,0.038394 -1.5321298,0.055909 -2.292849,-0.036264 0,0 -1.1836871,0.8599991 -1.1836871,0.8599991 z" />
    <path
       style="fill:#d40000;stroke-width:0.036;stroke-miterlimit:0"
       id="path47"
       d="m 7.1930286,13.550999 c 0.3967638,0.244657 0.7851909,0.502699 1.1522532,0.790531 0.109864,0.08615 0.2161045,0.176822 0.3241569,0.265234 0.2813222,0.233739 0.5451491,0.486648 0.7938979,0.754508 0.098102,0.105639 0.1866694,0.220171 0.2885731,0.322149 0.030483,0.03051 0.065842,0.05571 0.098762,0.08357 0.5972373,0.16828 0.2790253,0.108042 1.4350873,-0.799262 0.07141,-0.05605 0.04931,-0.174836 0.06899,-0.263459 0.0317,-0.142789 0.05949,-0.28646 0.08507,-0.430473 0.08183,-0.460807 0.162741,-1.026981 0.230506,-1.479074 0.05548,-0.336425 0.109339,-0.673121 0.166438,-1.009275 0.109195,-0.642851 0.281907,-1.627437 0.409556,-2.262714 0.135222,-0.6729708 0.316623,-1.5004446 0.505877,-2.1639841 0.08993,-0.315309 0.199855,-0.624571 0.299782,-0.9368563 0.396915,-1.0359821 0.194194,-0.5445794 0.602201,-1.4766544 0,0 -1.008265,0.4672804 -1.008265,0.4672804 v 0 c -0.306261,0.8964099 -0.15056,0.4229796 -0.463501,1.4214708 -0.08234,0.3057292 -0.171947,0.6095933 -0.247022,0.9171873 -0.170856,0.7000259 -0.308851,1.4351683 -0.449484,2.1408787 -0.188313,0.9449716 -0.264741,1.3557876 -0.474082,2.2934456 -0.07798,0.349258 -0.162495,0.697023 -0.243743,1.045534 -0.148958,0.554094 -0.266443,1.038193 -0.451949,1.574629 -0.05387,0.155783 -0.11228,0.310438 -0.182127,0.459743 -0.04298,0.09187 -0.2512692,0.294636 -0.1553519,0.261649 0.7727449,-0.265762 1.4953059,-0.910708 1.0756629,-0.541642 -0.03745,-0.01281 -0.07805,-0.01869 -0.112355,-0.03844 -0.07643,-0.044 -0.301443,-0.238958 -0.350478,-0.280851 C 10.307978,14.423918 10.029367,14.176035 9.7454912,13.934264 9.6395343,13.843363 9.5335777,13.752462 9.4276208,13.661561 9.3263116,13.575396 9.2246557,13.489637 9.1236931,13.403067 8.9167149,13.225592 8.7048651,13.050111 8.5167757,12.852068 c -0.024297,-0.02558 -0.046281,-0.05326 -0.069422,-0.07989 0,0 -1.2543255,0.778826 -1.2543255,0.778826 z" />
  </g>
</svg>
