<?xml version="1.0" encoding="UTF-8" standalone="no"?>
<svg
   xmlns:dc="http://purl.org/dc/elements/1.1/"
   xmlns:cc="http://creativecommons.org/ns#"
   xmlns:rdf="http://www.w3.org/1999/02/22-rdf-syntax-ns#"
   xmlns:svg="http://www.w3.org/2000/svg"
   xmlns="http://www.w3.org/2000/svg"
   xmlns:sodipodi="http://sodipodi.sourceforge.net/DTD/sodipodi-0.dtd"
   xmlns:inkscape="http://www.inkscape.org/namespaces/inkscape"
   width="21mm"
   height="21mm"
   viewBox="0 0 21 21"
   version="1.1"
   id="svg8"
   inkscape:version="1.0.2-2 (e86c870879, 2021-01-15)"
   sodipodi:docname="checkbox3.svg">
  <defs
     id="defs2" />
  <sodipodi:namedview
     id="base"
     pagecolor="#ffffff"
     bordercolor="#666666"
     borderopacity="1.0"
     inkscape:pageopacity="0.0"
     inkscape:pageshadow="2"
     inkscape:zoom="3.959798"
     inkscape:cx="12.58559"
     inkscape:cy="56.438983"
     inkscape:document-units="mm"
     inkscape:current-layer="layer1"
     inkscape:document-rotation="0"
     showgrid="false"
     inkscape:window-width="1465"
     inkscape:window-height="1040"
     inkscape:window-x="1972"
     inkscape:window-y="0"
     inkscape:window-maximized="0" />
  <metadata
     id="metadata5">
    <rdf:RDF>
      <cc:Work
         rdf:about="">
        <dc:format>image/svg+xml</dc:format>
        <dc:type
           rdf:resource="http://purl.org/dc/dcmitype/StillImage" />
        <dc:title></dc:title>
      </cc:Work>
    </rdf:RDF>
  </metadata>
  <g
     inkscape:label="Warstwa 1"
     inkscape:groupmode="layer"
     id="layer1">
    <path
       style="fill:#00ff00;stroke:#0e0e0e;stroke-width:0;stroke-linejoin:round;stroke-miterlimit:4;stroke-dasharray:none"
       id="path1430"
       d="m 5.9650746,20.047728 c -0.0543,-0.33415 -0.117492,-0.666977 -0.162895,-1.002451 -0.167098,-1.234665 -0.297512,-2.613963 -0.395811,-3.841333 -0.14938,-1.865167 -0.248034,-3.539492 -0.325734,-5.4132894 -0.03757,-0.906093 -0.05833,-1.812804 -0.0875,-2.719206 -0.02303,-1.255488 -0.06422,-2.984943 -0.05573,-4.274816 0.0028,-0.428099 0.002,-0.856923 0.0331,-1.2838998 0.01369,-0.1877692 0.281277,-0.60990866 0.100983,-0.55570056 -1.465946,0.44075586 -1.101993,0.80682736 -0.896329,1.76227736 0.07004,0.520924 0.152963,1.040277 0.210116,1.562772 0.261769,2.393127 0.3531,4.800003 0.424258,7.2048684 0.06963,2.353187 0.06837,2.977128 0.09887,5.308315 0.0031,0.767804 0.0062,1.535608 0.0093,2.303413 0,0 0.70071,-0.358865 0.70071,-0.358865 v 0 c -0.02853,-0.754728 -0.05707,-1.509455 -0.0856,-2.264183 -0.11458,-4.763388 -0.168538,-9.5282684 -0.339534,-14.2901384 -0.02744,-0.9266757 0.276145,-1.77251206 -1.259829,-0.6512852 -0.128284,0.093645 0.06288,0.3117052 0.08192,0.4693882 0.215303,1.783468 0.268191,3.582452 0.383294,5.373472 0.11202,2.7307054 0.215932,5.4614804 0.298992,8.1932494 0.01574,0.517518 0.09355,3.275976 0.103431,3.99477 0.005,0.363238 -9.79e-4,0.726543 -0.0015,1.089816 0,0 1.165405,-0.607174 1.165405,-0.607174 z" />
    <path
       style="fill:#00ff00;stroke:#0e0e0e;stroke-width:0;stroke-linejoin:round;stroke-miterlimit:4;stroke-dasharray:none"
       id="path1444"
       d="M 0.50327974,4.9470686 C 4.4821516,4.2568986 8.4887656,3.7493566 12.484181,3.1689516 c 1.23235,-0.17902 2.462877,-0.37037 3.694315,-0.555555 1.108172,-0.174617 2.216343,-0.349234 3.324516,-0.52385 0,0 0.851731,-0.6402214 0.851731,-0.6402214 v 0 c -1.131189,0.1925352 -2.262377,0.3850704 -3.393566,0.5776054 -1.222372,0.179077 -2.442838,0.371696 -3.667118,0.53723 -3.7402424,0.505716 -7.4980974,0.889747 -11.2550814,1.244724 0,0 -1.53569786,1.138184 -1.53569786,1.138184 z" />
    <path
       style="fill:#00ff00;stroke:#0e0e0e;stroke-width:0;stroke-linejoin:round;stroke-miterlimit:4;stroke-dasharray:none"
       id="path1478"
       d="m 1.282593,19.963906 c 0.3642944,0.07525 0.4932986,0.108061 0.9165506,0.155053 0.775724,0.08612 1.532441,0.120071 2.314589,0.151318 1.169154,0.04671 2.363752,0.06988 3.532514,0.09759 2.3273544,0.0019 4.6678854,-0.04995 6.9772514,-0.367633 1.091913,-0.150204 1.417831,-0.242128 2.461435,-0.471442 1.253338,-0.340458 0.660358,-0.163873 1.781219,-0.522026 0,0 1.395695,-1.084723 1.395695,-1.084723 v 0 c -1.163312,0.407855 -0.549624,0.208098 -1.84373,0.591016 -1.047017,0.254304 -1.431794,0.368715 -2.526447,0.542179 -2.321802,0.367924 -4.684341,0.468005 -7.0315704,0.436732 -1.357672,-0.05651 -2.081624,-0.07305 -3.410114,-0.177777 -0.980903,-0.07733 -1.9899,-0.154416 -2.931716,-0.460073 0,0 -1.6356766,1.10979 -1.6356766,1.10979 z" />
    <path
       style="fill:#00ff00;stroke:#0e0e0e;stroke-width:0;stroke-linejoin:round;stroke-miterlimit:4;stroke-dasharray:none"
       id="path1502"
       d="m 20.371322,17.475437 c -0.02879,-0.415112 -0.06591,-0.82973 -0.08636,-1.245337 -0.06724,-1.366751 -0.09316,-2.863971 -0.108117,-4.22329 -0.0186,-1.688707 -0.01908,-3.2599504 0.0042,-4.9474134 0.0098,-0.707027 0.03005,-1.41387 0.04507,-2.120806 0.0232,-0.714556 0.04895,-2.116005 0.13607,-2.902145 0.02305,-0.208011 0.324948,-0.5718106 0.120425,-0.6161952 -1.092144,-0.2370111 -0.613997,0.7604682 -0.566652,1.0349252 0.06647,0.385303 0.106516,0.774701 0.159776,1.162051 0.04043,0.552389 0.09575,1.103889 0.121293,1.657166 0.147521,3.195585 -0.0085,6.4027704 -0.250108,9.5894254 -0.05957,0.785781 -0.134194,1.570348 -0.201289,2.355522 0,0 0.316732,-0.158409 0.316732,-0.158409 v 0 c 0.294862,-4.578554 0.652979,-9.1610064 0.607984,-13.7523734 -0.0075,-0.413415 -0.006,-0.827095 -0.02265,-1.240245 -0.0095,-0.235978 0.170749,-0.6391296 -0.05566,-0.7063166 -0.30839,-0.091514 -0.653409,0.1890818 -0.861941,0.4340196 -0.118591,0.139296 0.01807,0.365439 0.02569,0.548221 0.05583,1.33837 0.04831,1.262364 0.09348,2.786264 0.01196,0.693187 0.02956,1.3863 0.03589,2.079561 0.01535,1.682933 0.006,3.2737024 -0.02471,4.9577914 -0.0258,1.414022 -0.06557,2.936465 -0.150561,4.354647 -0.02688,0.448538 -0.07228,0.895775 -0.108426,1.343663 0,0 0.769863,-0.390726 0.769864,-0.390726 z" />
    <path
       style="fill:#00ff00;stroke:#0e0e0e;stroke-width:0;stroke-linejoin:round;stroke-miterlimit:4;stroke-dasharray:none"
       id="path1532"
       d="M 20.620448,1.605918 C 20.550415,1.2033079 20.49975,0.79789754 20.429757,0.39517574 c 0,0 -0.822624,0.4375351 -0.822624,0.4375351 v 0 c 0.07326,0.40335646 0.12454,0.81290926 0.130117,1.22321876 0,0 0.883198,-0.4500116 0.883198,-0.4500116 z" />
  </g>
</svg>
