<?xml version="1.0" encoding="UTF-8" standalone="no"?>
<svg
   xmlns:dc="http://purl.org/dc/elements/1.1/"
   xmlns:cc="http://creativecommons.org/ns#"
   xmlns:rdf="http://www.w3.org/1999/02/22-rdf-syntax-ns#"
   xmlns:svg="http://www.w3.org/2000/svg"
   xmlns="http://www.w3.org/2000/svg"
   xmlns:sodipodi="http://sodipodi.sourceforge.net/DTD/sodipodi-0.dtd"
   xmlns:inkscape="http://www.inkscape.org/namespaces/inkscape"
   width="50mm"
   height="50mm"
   viewBox="0 0 50 50"
   version="1.1"
   id="svg8"
   inkscape:version="1.0.2-2 (e86c870879, 2021-01-15)"
   sodipodi:docname="checkbox-blackChecked3.svg">
  <defs
     id="defs2" />
  <sodipodi:namedview
     id="base"
     pagecolor="#ffffff"
     bordercolor="#666666"
     borderopacity="1.0"
     inkscape:pageopacity="0.0"
     inkscape:pageshadow="2"
     inkscape:zoom="3.959798"
     inkscape:cx="88.717777"
     inkscape:cy="87.691042"
     inkscape:document-units="mm"
     inkscape:current-layer="layer1"
     inkscape:document-rotation="0"
     showgrid="false"
     inkscape:window-width="1465"
     inkscape:window-height="1040"
     inkscape:window-x="2076"
     inkscape:window-y="0"
     inkscape:window-maximized="0" />
  <metadata
     id="metadata5">
    <rdf:RDF>
      <cc:Work
         rdf:about="">
        <dc:format>image/svg+xml</dc:format>
        <dc:type
           rdf:resource="http://purl.org/dc/dcmitype/StillImage" />
        <dc:title />
      </cc:Work>
    </rdf:RDF>
  </metadata>
  <g
     inkscape:label="Warstwa 1"
     inkscape:groupmode="layer"
     id="layer1">
    <path
       style="opacity:0.99;fill:#333333;fill-opacity:1;stroke:#000000;stroke-width:0"
       id="path857"
       d="M 7.2521066,7.8226578 C 8.0618215,13.962297 7.9424127,20.177842 7.8848838,26.355112 7.8138088,31.028704 7.632099,35.700708 7.3813955,40.367964 c -0.049561,0.922655 -0.1086925,1.844794 -0.1712984,2.766655 -0.1135452,1.671926 -0.1431563,0.935847 -0.099919,1.704515 0.8113276,-0.797018 1.8975025,-1.388222 2.4339827,-2.391056 0.326093,-0.609563 -0.0336,-1.382215 -0.04566,-2.073415 -0.01696,-0.972905 -0.03029,-1.945878 -0.0414,-2.91887 -0.04077,-3.569798 -0.0068,-7.129264 0.08676,-10.697879 0.0491,-1.214535 0.115155,-3.59823 0.2656,-4.921239 0.04446,-0.391019 0.08049,-0.791531 0.2177152,-1.160368 0.04167,-0.112011 0.385676,-0.282321 0.29162,-0.208585 -0.7380272,0.578578 -1.4825143,1.148867 -2.223771,1.7233 l 2.339168,-1.308102 v 0 c -0.8822312,0.228067 -1.7852239,0.387189 -2.6466924,0.684204 -0.074723,0.02576 -0.022035,0.157014 -0.02245,0.236053 -0.00185,0.353457 0.00917,0.706867 0.015634,1.06027 0.068917,3.765374 0.018113,0.130033 0.072933,4.752698 -0.00807,4.587626 -0.020428,9.192289 -0.3608785,13.770152 -0.054384,0.731277 -0.743363,1.674358 -0.2207836,2.188787 0.5258763,0.517673 1.4671722,-0.159798 2.2007583,-0.239697 -0.5334725,0.333061 -0.280019,0.255445 -0.397653,-1.148619 -0.07294,-0.870609 -0.096726,-1.744957 -0.1163157,-2.618399 -0.055535,-2.476045 -0.9567393,-6.793813 -0.9134243,-9.184299 0.032133,-1.773383 1.023302,-2.878087 1.067232,-4.651218 0.210544,-6.403912 0.415141,-12.006078 0.607877,-18.4105028 l -2.468327,0.5003086 z"
       sodipodi:nodetypes="ccsscscccsssccsscccsscssscccc" />
    <path
       style="fill:#333333;fill-opacity:0.992157;stroke-width:0.036;stroke-miterlimit:0"
       id="path15"
       d="M 5.9320387,8.5618726 C 9.8887837,7.8899392 13.888461,7.5154411 17.880623,7.1281183 23.789745,6.6350604 29.711181,6.1874857 35.643269,6.1210292 c 0.739786,-0.00829 1.479664,0.00286 2.219497,0.00429 0.515522,0.021423 1.032841,0.016219 1.546564,0.064272 0.254169,0.023776 0.527129,0.027729 0.750879,0.1506271 0.06873,0.037753 -0.214503,0.2283092 -0.155942,0.1761513 C 40.726312,5.8732573 42.166666,5.5331547 42.1518,4.5663432 42.140422,3.8258167 40.709463,4.9057469 39.981605,5.0426125 38.934876,5.2394381 37.88035,5.392271 36.829724,5.5671002 35.503077,5.738605 34.179047,5.9317521 32.84978,6.0816148 29.78165,6.4275178 26.813835,6.6664572 23.73147,6.8564315 20.813353,7.0362828 18.155668,7.1415729 15.24136,7.200307 14.102576,7.223257 12.96343,7.221622 11.824465,7.232278 10.932371,7.222274 10.040277,7.21227 9.1481829,7.202266 c 0,0 -1.4938544,1.0951845 -1.4938544,1.0951845 v 0 C 8.6865451,8.2047305 9.7187617,8.1120104 10.750978,8.01929 12.001373,7.927083 13.25129,7.8281291 14.502164,7.7426679 21.438655,7.2687576 28.383997,6.9205289 35.332331,6.6792493 c 0.853358,-0.026001 1.706464,-0.062326 2.560076,-0.078005 0.51902,-0.00953 1.078537,0.2029717 1.557325,0.00238 7.257253,-3.0405536 4.085201,-2.262224 2.140066,-2.0136922 -0.647515,0.082733 -1.296842,0.1506048 -1.945262,0.2259071 -0.86333,0.089221 -1.72594,0.1856835 -2.589987,0.2676628 -5.956962,0.565187 -11.93457,0.9116219 -17.91411,1.1168486 -2.168955,0.061946 -3.522055,0.1096642 -5.638935,0.1387956 -0.643355,0.00885 -1.286799,0.012086 -1.930214,0.011277 -0.644357,-8.202e-4 -1.455077,-0.00599 -2.1237778,-0.051318 -0.1258846,-0.00853 -0.2506745,-0.029001 -0.3760119,-0.043501 0,0 -3.1394616,2.3062716 -3.1394616,2.3062716 z" />
    <path
       style="fill:#333333;fill-opacity:0.992157;stroke-width:0.036;stroke-miterlimit:0"
       id="path57"
       d="m 44.806563,40.401189 c -0.04963,-0.299199 -0.05094,-0.281395 -0.08422,-0.669168 -0.05804,-0.676103 -0.08919,-1.297466 -0.119382,-1.983542 -0.06371,-1.447461 -0.08052,-2.204786 -0.125746,-3.708553 -0.09237,-2.797461 -0.11438,-5.596094 -0.129522,-8.394767 -0.0131,-2.422983 -0.02965,-4.419492 -0.0065,-6.84918 0.01122,-1.176767 0.03796,-2.353335 0.05694,-3.530003 0.06523,-2.976493 0.194601,-5.9537802 0.496255,-8.9166767 0.07337,-0.7206451 0.26661,-2.3316864 0.4376,-3.1495785 0.04304,-0.2058758 0.121523,-0.4027178 0.182285,-0.6040768 -1.137521,0.6398895 -2.441528,1.0475978 -3.412559,1.9196687 -0.249576,0.2241415 0.136173,0.6580989 0.170746,0.9917639 0.06154,0.5939422 0.09361,1.1908713 0.117237,1.7875258 0.121954,3.0797386 0.01254,6.1604786 -0.06812,9.2394286 -0.106756,2.523682 -0.207497,5.086738 -0.345146,7.608887 -0.06566,1.20302 -0.147032,2.405133 -0.220549,3.607698 0,0 1.202949,-0.607285 1.202949,-0.607285 v 0 c 0.01524,-1.172641 0.008,-2.345788 0.0457,-3.517924 0.09281,-2.88883 0.259985,-4.785507 0.469466,-7.669369 0.326978,-3.280713 0.627788,-6.5628361 1.216316,-9.8100525 0.124614,-0.6875441 0.256109,-1.3749911 0.431933,-2.0512531 0.10768,-0.4141611 0.84411,-1.2415912 0.417062,-1.2141581 -1.181668,0.075909 -2.177343,0.9314473 -3.266016,1.3971709 0.08469,0.1170532 0.208621,0.2140169 0.254069,0.35116 0.202901,0.6122575 0.353515,2.2507149 0.393734,2.7226387 0.241887,2.8381911 0.276471,5.6891871 0.252375,8.5359181 -0.01937,1.176855 -0.0308,2.353866 -0.05811,3.530563 -0.121643,5.241438 -0.369195,10.482042 -0.790038,15.708129 -0.07455,0.73669 -0.138798,1.474494 -0.223663,2.210065 -0.12265,1.063045 -0.270558,2.069579 -0.456004,3.118485 -0.0845,0.477906 -0.184166,0.969584 -0.30172,1.443035 -0.0218,0.08779 -0.04917,0.174093 -0.07376,0.261138 0,0 3.536352,-1.757688 3.536352,-1.757688 z" />
    <path
       style="fill:#333333;fill-opacity:0.992157;stroke-width:0.036;stroke-miterlimit:0"
       id="path71"
       d="m 8.3707575,44.073103 c 0.3227461,-0.05224 0.6441231,-0.113789 0.9682384,-0.156728 1.3816451,-0.183034 2.6844461,-0.293646 4.0851571,-0.395714 1.065541,-0.07764 2.131777,-0.146243 3.198459,-0.206214 1.24781,-0.07015 2.49655,-0.122629 3.744816,-0.184142 1.393075,-0.06865 2.786137,-0.137554 4.179205,-0.206332 4.104233,-0.188939 8.209746,-0.381043 12.318768,-0.425434 1.580621,-0.01707 3.913989,-0.0034 5.557533,0.06336 0.53022,0.02154 1.059066,0.06908 1.588598,0.103619 0.244787,0.05236 0.518507,0.0303 0.734364,0.157064 0.06936,0.04073 -0.220279,0.234178 -0.161343,0.179438 0.742969,-0.690078 2.078173,-1.081206 2.214102,-2.086059 0.08887,-0.65695 -1.310735,0.201977 -1.969397,0.27709 -2.426917,0.276751 -3.767116,0.330972 -6.282502,0.496641 -6.809697,0.337963 -13.634465,0.425625 -20.450578,0.245658 -1.185409,-0.0313 -2.370056,-0.0868 -3.555083,-0.130207 -2.55059,-0.154321 -2.877997,-0.147407 -5.2378707,-0.378695 -0.5524532,-0.05415 -1.1032675,-0.123878 -1.654901,-0.185817 0,0 -2.1326843,1.540904 -2.1326843,1.540904 v 0 c 2.662088,-0.11561 5.325049,-0.2168 7.990156,-0.226639 7.922844,-0.03666 15.84658,-0.0642 23.768792,0.06341 1.793115,0.04929 3.554695,0.07592 5.342202,0.196154 0.474374,0.03191 0.977781,0.312867 1.419698,0.137483 1.347949,-0.534962 2.522382,-1.433013 3.757933,-2.192333 0.478647,-0.294158 -4.04482,1.749693 -1.650055,0.343517 -0.688711,0.08226 -1.376088,0.176567 -2.066132,0.24679 -1.819354,0.185147 -4.573283,0.393628 -6.3311,0.502909 -2.536217,0.157676 -5.686878,0.301609 -8.215551,0.382733 -1.393521,0.04471 -2.787652,0.06768 -4.181477,0.101524 -1.297775,-2.36e-4 -2.595627,0.01339 -3.893326,-7.94e-4 -2.548298,-0.02769 -3.671016,-0.08139 -6.118715,-0.21191 -1.302648,-0.06946 -2.611443,-0.131514 -3.90594,-0.302387 0,0 -3.0613665,2.251024 -3.0613665,2.251024 z" />
    <path
       style="fill:#333333;fill-opacity:0.992157;stroke-width:0.036;stroke-miterlimit:0"
       id="path66"
       d="m 19.24267,24.568411 c 1.108537,1.233759 1.900613,2.729379 2.540249,4.250688 0.181081,0.430684 0.331314,0.873697 0.49697,1.310545 0.124155,0.390681 0.25247,0.780066 0.372463,1.172046 0.09349,0.305408 0.176855,0.613833 0.267948,0.919967 0.05841,0.196307 0.09221,0.402537 0.180558,0.587319 0.04874,0.101941 0.122521,0.308346 0.222512,0.255725 3.688328,-1.941052 3.411896,-0.914085 3.522118,-3.020758 0.0751,-1.698543 0.639488,-3.193149 0.968929,-4.863191 0.360074,-1.82533 1.339923,-3.7876 1.921829,-5.548967 0.349526,-1.057975 0.759614,-2.094972 1.139418,-3.142457 1.163571,-2.958674 2.203645,-6.4963932 3.702613,-9.2983057 0.654553,-1.2235103 0.71113,-1.7572195 1.478567,-2.8957967 0.215726,-0.3200535 0.956561,-1.1296495 1.186611,-1.439566 0.165487,-0.1699389 -0.165486,0.1699388 0,0 l -3.285037,1.4167295 v 0 c -0.06488,0.1390073 -0.129768,0.2780147 -0.194654,0.4170223 -0.534657,1.2800814 -1.021953,2.5779761 -1.53888,3.8653034 -1.134494,2.8252832 -2.353776,5.6145692 -3.544017,8.4165532 -0.435517,1.075949 -0.885344,2.146216 -1.306547,3.227848 -0.771333,1.980747 -1.420745,3.764446 -2.045254,5.78643 -0.579895,1.877534 -0.643245,2.353035 -1.12803,4.146069 -0.123671,0.457412 -0.260268,0.91123 -0.390403,1.366846 -0.124128,0.285617 -0.676408,0.924343 -0.372385,0.856853 1.093978,-0.242853 2.024902,-0.960684 3.034132,-1.447737 0.08875,-0.04283 -0.182776,0.15593 -0.272379,0.114917 -0.173644,-0.07948 -0.283284,-0.261014 -0.391132,-0.418616 -0.363292,-0.530887 -0.692136,-1.354826 -0.9424,-1.916126 -0.523044,-1.295776 -1.029722,-2.595688 -1.513534,-3.906682 -0.135305,-0.366639 -0.475556,-1.29275 -0.619223,-1.727815 -0.04494,-0.136094 -0.08166,-0.274767 -0.122485,-0.41215 z"
       sodipodi:nodetypes="cscsssccsscsscccscscssscsssscsscc" />
  </g>
</svg>
