<?xml version="1.0" encoding="UTF-8" standalone="no"?>
<svg
   xmlns:dc="http://purl.org/dc/elements/1.1/"
   xmlns:cc="http://creativecommons.org/ns#"
   xmlns:rdf="http://www.w3.org/1999/02/22-rdf-syntax-ns#"
   xmlns:svg="http://www.w3.org/2000/svg"
   xmlns="http://www.w3.org/2000/svg"
   xmlns:sodipodi="http://sodipodi.sourceforge.net/DTD/sodipodi-0.dtd"
   xmlns:inkscape="http://www.inkscape.org/namespaces/inkscape"
   width="21mm"
   height="21mm"
   viewBox="0 0 21 21"
   version="1.1"
   id="svg8"
   inkscape:version="1.0.2-2 (e86c870879, 2021-01-15)"
   sodipodi:docname="checkbox3checked.svg">
  <defs
     id="defs2" />
  <sodipodi:namedview
     id="base"
     pagecolor="#ffffff"
     bordercolor="#666666"
     borderopacity="1.0"
     inkscape:pageopacity="0.0"
     inkscape:pageshadow="2"
     inkscape:zoom="7.9195959"
     inkscape:cx="28.191011"
     inkscape:cy="47.548279"
     inkscape:document-units="mm"
     inkscape:current-layer="layer1"
     inkscape:document-rotation="0"
     showgrid="false"
     inkscape:window-width="1465"
     inkscape:window-height="1040"
     inkscape:window-x="1946"
     inkscape:window-y="0"
     inkscape:window-maximized="0" />
  <metadata
     id="metadata5">
    <rdf:RDF>
      <cc:Work
         rdf:about="">
        <dc:format>image/svg+xml</dc:format>
        <dc:type
           rdf:resource="http://purl.org/dc/dcmitype/StillImage" />
        <dc:title />
      </cc:Work>
    </rdf:RDF>
  </metadata>
  <g
     inkscape:label="Warstwa 1"
     inkscape:groupmode="layer"
     id="layer1">
    <path
       style="fill:#d40000;stroke-width:12.965"
       id="path919"
       d="m 17.95195,1.7048687 c 0.1187,1.9985 0.128813,4.00245 0.137462,6.0039542 -0.005,2.9897991 -0.07187,5.9790411 -0.192315,8.9663111 -0.02887,0.677085 -0.06438,1.353849 -0.100563,2.030571 0,0 1.146188,-0.582541 1.146188,-0.582541 v 0 c -0.02283,-0.650407 -0.04355,-1.300898 -0.0538,-1.951654 -0.03935,-2.975261 0.0074,-5.950135 0.10754,-8.9239623 0.04056,-2.052203 0.04357,-4.106716 0.160067,-6.156443 0,0 -1.204579,0.613764 -1.204579,0.613764 z" />
    <path
       style="fill:#d40000;stroke-width:12.965"
       id="path931"
       d="m 2.340423,18.872084 c -0.0059,-0.0711 -0.01574,-0.141975 -0.01759,-0.213289 -0.0085,-0.329882 0.0046,-0.659971 0.0069,-0.989957 0.0073,-1.019386 0.02016,-2.038511 0.03544,-3.057816 0.02789,-2.068713 0.09354,-4.138961 0.269074,-6.201071 0.110458,-1.2976942 0.198408,-1.9301562 0.353504,-3.2077132 0.152046,-1.031301 0.271005,-2.070688 0.492728,-3.090591 0.02936,-0.135068 0.224423,-0.471566 0.105566,-0.401007 -1.39827,0.830084 -1.184828,0.727267 -1.161891,1.884516 -0.02159,3.379441 -0.0499,6.7591572 -0.146568,10.1373812 -0.04281,1.097441 -0.06106,1.741906 -0.126016,2.806237 -0.01815,0.297151 -0.03185,0.594902 -0.06531,0.890717 -0.01836,0.162359 -0.24959,0.516588 -0.08993,0.481857 1.227212,-0.266965 1.12041,-0.379643 1.006846,-0.956244 -0.0454,-0.250235 -0.09894,-0.499126 -0.13621,-0.7507 C 2.734701,15.311711 2.683781,14.650705 2.608756,13.733537 2.470551,12.044048 2.368872,10.352615 2.269089,8.66053 2.169399,6.5122828 2.205259,7.5523728 2.15688,5.5404228 c 0,0 -0.905648,0.466318 -0.905648,0.466318 v 0 c 0.121783,1.981459 0.05872,0.954111 0.189132,3.0820442 0.157562,2.82711 0.262229,5.656286 0.41044,8.483737 0.176499,0.819309 0.05239,1.029105 1.299835,-0.237344 0.102473,-0.104037 -0.0094,-0.291905 -0.01368,-0.43787 -0.03463,-1.194297 -0.04618,-2.388944 -0.03314,-3.583768 0.03318,-3.418326 0.08034,-6.8402732 0.370657,-10.2484182 0.08673,-0.920225 0.427834,-1.394587 -1.065805,-0.778892 -0.11217,0.04624 -0.01222,0.242375 -0.02193,0.363311 -0.08002,0.998734 -0.193331,1.994717 -0.286033,2.992247 -0.09935,0.965951 -0.23332,2.234223 -0.317003,3.1935712 -0.181803,2.084263 -0.288499,4.173969 -0.383878,6.263661 -0.07116,1.470829 -0.150077,2.941727 -0.302935,4.406646 0,0 1.243476,-0.633582 1.243476,-0.633582 z" />
    <path
       style="fill:#d40000;fill-opacity:1;stroke-width:0.036;stroke-miterlimit:0"
       id="path14"
       d="M 2.1470392,3.2988031 C 4.5868151,3.1656016 7.029361,3.0860467 9.4715705,3.0128523 c 1.7679225,-0.049092 3.5368305,-0.058429 5.3046935,-0.00329 0.965339,0.030106 1.929821,0.088389 2.894948,0.1249457 0.140141,0.00198 0.280286,0.00367 0.420422,0.00593 0.589299,0.00948 0.550924,0.070056 1.298437,-0.8377068 0.09442,-0.1146601 -0.297404,0.00237 -0.445309,0.016007 -0.264739,0.024405 -0.527575,0.066305 -0.791539,0.098011 -0.377381,0.045329 -0.754991,0.088729 -1.132487,0.1330935 C 14.43608,2.8441239 11.840229,3.0317812 9.2407686,3.1268277 8.7858811,3.1434594 8.3307573,3.1528363 7.8757515,3.1658405 6.8996856,3.1850043 5.9222735,3.1899599 4.9470976,3.1360447 4.7637194,3.1259059 4.2020257,3.0898138 3.9797958,3.036904 3.9104594,3.0203967 3.8489112,2.9804287 3.7834692,2.9521913 3.7482118,2.8772165 4.0973933,2.752489 4.0235375,2.8092323 3.816423,2.9683584 3.186099,3.0471476 3.3664477,3.2360705 3.561008,3.4398806 3.8926794,3.0318537 4.164208,2.9565906 5.2421731,2.657797 5.7487222,2.6330997 6.9133307,2.4711569 8.7470522,2.331484 9.02326,2.2797244 10.905587,2.2668718 c 0.682427,-0.00466 1.364736,0.02021 2.047104,0.030315 0,0 0.290188,-0.2101308 0.290188,-0.2101308 v 0 C 11.310536,2.0543399 9.3773116,2.0135275 7.4449765,2.0765898 6.437753,2.1371183 5.9545153,2.1298098 5.0104579,2.3027161 4.7788118,2.3451426 4.5398274,2.3776401 4.3251546,2.4744671 3.7856625,2.7178018 3.2652113,3.0049701 2.762186,3.3167858 2.671133,3.3732278 2.5871093,3.4637531 2.561441,3.56776 2.546665,3.627633 2.628418,3.6713299 2.6619062,3.7231146 c 0.098396,0.015563 0.195759,0.040544 0.2951888,0.046685 0.245439,0.015158 0.9525389,-0.01248 1.144887,-0.019452 1.0650299,-0.038591 2.1294709,-0.092885 3.1931556,-0.1586749 1.5375544,-0.092977 3.0751804,-0.184704 4.6129014,-0.2748872 0.956749,-0.056111 2.140604,-0.1271908 3.103532,-0.1730667 0.425019,-0.020249 0.850278,-0.035107 1.275416,-0.052661 0.325151,-0.00638 0.65024,-0.018304 0.975452,-0.019135 0.208851,-5.292e-4 0.417616,0.0088 0.626375,0.015036 0.08684,0.00259 0.18345,0.051815 0.260395,0.011467 0.426213,-0.2235018 0.825616,-0.4975647 1.212481,-0.7838262 0.22255,-0.1646764 -1.426067,0.6569022 -0.811431,0.1772083 -0.267784,0.023317 -0.535147,0.052104 -0.803351,0.069951 -0.787118,0.052379 -1.71429,0.080554 -2.491009,0.099401 -1.800517,0.04369 -3.60171,0.057477 -5.4026149,0.07347 -1.399141,-1.28e-4 -2.0365789,0.010899 -3.4063816,-0.029916 -0.9469368,-0.028216 -1.8958591,-0.0769 -2.8364581,-0.194956 -0.099729,-0.012517 -0.1986402,-0.030854 -0.29796,-0.046281 0,0 -1.1654452,0.8353265 -1.1654452,0.8353262 z" />
    <path
       style="fill:#d40000;fill-opacity:1;stroke-width:0.036;stroke-miterlimit:0"
       id="path24"
       d="M 2.7920193,6.6074018 C 2.7718653,6.4748292 2.7513866,6.3426116 2.7270218,6.2104972 2.6908394,6.0441592 2.6576244,5.8773111 2.6242778,5.7104008 2.6005414,5.576745 2.5730619,5.4434831 2.5406172,5.3116187 2.5026712,5.2113877 2.4879778,5.1050614 2.4607377,5.002197 2.4459029,4.9214483 2.4193661,4.843928 2.4067188,4.7627435 2.3956478,4.7179755 2.3844268,4.6736996 2.3706572,4.6296848 c 0,0 -1.2977618,0.707494 -1.2977618,0.707494 v 0 c 0.010224,0.040136 0.01934,0.08046 0.027423,0.1210897 0.016979,0.083028 0.040988,0.1641962 0.059922,0.246797 0.023495,0.1027253 0.060193,0.2010487 0.090991,0.3016753 0.029742,0.1315529 0.054388,0.2641436 0.084282,0.3956386 0.038493,0.1622822 0.082054,0.3239047 0.1051928,0.4893064 0.018341,0.1360913 0.033981,0.2722438 0.035594,0.4097975 0,0 1.3157187,-0.6940815 1.3157186,-0.6940815 z" />
    <path
       style="fill:#d40000;fill-opacity:1;stroke-width:0.036;stroke-miterlimit:0"
       id="path32"
       d="m 1.5047399,19.642944 c 0.075954,-0.01609 0.1514467,-0.03453 0.2278606,-0.04826 0.4350339,-0.07819 0.8994076,-0.142593 1.332987,-0.198802 0.9391064,-0.121746 1.6680276,-0.205445 2.6270536,-0.290066 0.5621155,-0.0496 1.1252091,-0.08741 1.6878138,-0.131113 2.8298801,-0.176318 5.6677661,-0.205791 8.5020111,-0.147031 0.409019,0.0085 0.817913,0.02215 1.226869,0.03323 0.724565,0.02641 1.448573,0.06581 2.172325,0.108622 0.08438,0.005 0.169209,0.0054 0.253063,0.01601 0.0157,0.002 0.03013,0.03139 0.04237,0.02138 0.348671,-0.2854 0.678666,-0.592883 1.017998,-0.889325 -0.127611,0.0014 -0.255279,1.56e-4 -0.382834,0.0042 -0.720581,0.02293 -1.44065,0.08118 -2.160157,0.12389 -3.067415,0.182082 1.185305,-0.07547 -2.165496,0.128443 -1.694189,0.09909 -3.389462,0.195707 -5.086648,0.22403 -1.0602297,0.01769 -1.3766309,0.006 -2.4217165,-0.0076 -1.8007148,-0.05667 -3.59986,-0.156868 -5.3981339,-0.264945 -0.4518008,-0.05028 -0.9146452,-0.0368 -1.3623247,-0.126854 -0.058617,-0.01179 -0.1183676,-0.02521 -0.1714507,-0.05272 -0.010476,-0.0054 0.011203,-0.0421 0.00152,-0.03537 -0.3607439,0.25098 -0.71059943,0.517258 -1.06589916,0.775888 0.11152297,-0.03786 0.2205339,-0.08414 0.3345689,-0.113581 C 1.1484271,18.66146 1.7373139,18.573041 2.1603266,18.520335 3.0448925,18.410123 3.8127208,18.35101 4.711731,18.305977 c 0.555919,-0.02785 1.1125012,-0.04034 1.6687517,-0.0605 3.1773413,-0.05689 6.3563533,0.0101 9.5304533,0.158697 0.489897,0.02294 0.979501,0.05173 1.469251,0.07759 0.387703,0.02558 0.775405,0.05115 1.163106,0.07673 0,0 0.659983,-0.477202 0.659983,-0.477202 v 0 c -0.432455,0.0068 -0.864911,0.01362 -1.297366,0.02043 -1.514823,0.0045 -1.827943,0.01167 -3.398868,-0.01134 -2.547523,-0.03732 -5.0932289,-0.143937 -7.6403356,-0.198959 -1.7887418,-0.03007 -3.5837105,-0.0733 -5.3671948,0.100565 -0.4317288,0.29717 -0.8856201,0.564471 -1.2951865,0.891511 -0.0315832,0.02522 0.067334,0.04865 0.10678626,0.05743 0.079035,0.01758 0.16115112,0.01716 0.24206228,0.02018 0.51470296,0.01917 1.03008546,-0.0226 1.54483156,8.8e-5 1.8676408,0.03717 3.7341317,0.131603 5.6026414,0.121273 0.4018725,-0.0021 0.803765,-0.0018 1.2056176,-0.0063 2.0916548,-0.02354 4.1821258,-0.102565 6.2721958,-0.182755 0.953504,-0.02495 1.906061,-0.04931 2.85998,-0.04052 0.337846,0.0031 0.759072,0.0076 1.10426,0.03755 0.09445,0.0082 0.187835,0.02582 0.281753,0.03873 0.431045,-0.275818 0.858822,-0.556811 1.293135,-0.827454 0.04077,-0.02541 -0.06617,0.07557 -0.111606,0.09118 -0.1139,0.03913 -0.235164,0.05394 -0.354651,0.06901 -0.196869,0.02483 -0.395138,0.03749 -0.593137,0.05055 -0.603188,0.03981 -1.316657,0.06193 -1.91066,0.08458 -1.285969,0.03687 -1.520463,0.04562 -2.859052,0.07494 -2.344868,0.05137 -4.690379,0.07601 -7.0345985,0.15474 -0.5262462,0.01654 -1.052531,0.0319 -1.5787383,0.04963 -1.1967657,0.04033 -2.3942772,0.10595 -3.5921317,0.08471 0,0 -1.1782756,0.88188 -1.1782756,0.88188 z" />
    <path
       style="fill:#d40000;stroke-width:0.036;stroke-miterlimit:0"
       id="path47"
       d="m 7.0489362,13.679521 c 0.5303568,0.584826 0.9934025,1.227575 1.443781,1.874887 0.06208,0.06726 0.1090932,0.152525 0.1862407,0.201781 0.060557,0.03866 0.1460037,0.08456 0.2094555,0.05086 0.4893914,-0.259944 0.9786972,-0.538271 1.3955596,-0.903374 0.137845,-0.120729 0.146966,-0.335815 0.214014,-0.506347 0.10641,-0.270645 0.202354,-0.5453 0.306255,-0.816919 0.140708,-0.367838 0.28504,-0.734279 0.427559,-1.101419 0.671843,-1.695255 1.344952,-3.3914306 2.103066,-5.0505335 0.296469,-0.6488099 0.396672,-0.8345797 0.695809,-1.4257382 0,0 -1.052991,0.4848114 -1.052991,0.4848114 v 0 c -0.25371,0.7811413 -0.507621,1.5623389 -0.791958,2.3330765 -0.500544,1.3568008 -1.057785,2.6924618 -1.687958,3.9945008 -0.313823,0.630703 -0.698352,1.439977 -1.0669857,2.059649 -0.1107776,0.186216 -0.5771882,0.49672 -0.3645201,0.5382 0.3398837,0.06629 0.63734,-0.271857 0.9482448,-0.424349 0.126751,-0.06217 -0.685675,0.276078 -0.412625,-0.09549 C 9.51822,14.797617 9.4318753,14.704405 9.3508927,14.606624 8.9321999,14.101079 8.5657332,13.548206 8.2973219,12.948009 c 0,0 -1.2483857,0.731516 -1.2483857,0.731516 z" />
  </g>
</svg>
