<?xml version="1.0" encoding="UTF-8" standalone="no"?>
<svg
   xmlns:dc="http://purl.org/dc/elements/1.1/"
   xmlns:cc="http://creativecommons.org/ns#"
   xmlns:rdf="http://www.w3.org/1999/02/22-rdf-syntax-ns#"
   xmlns:svg="http://www.w3.org/2000/svg"
   xmlns="http://www.w3.org/2000/svg"
   xmlns:sodipodi="http://sodipodi.sourceforge.net/DTD/sodipodi-0.dtd"
   xmlns:inkscape="http://www.inkscape.org/namespaces/inkscape"
   width="69mm"
   height="49.5mm"
   viewBox="0 0 69 49.5"
   version="1.1"
   id="svg8"
   sodipodi:docname="circle-pick.svg"
   inkscape:version="1.0.2-2 (e86c870879, 2021-01-15)">
  <defs
     id="defs2" />
  <sodipodi:namedview
     id="base"
     pagecolor="#ffffff"
     bordercolor="#666666"
     borderopacity="1.0"
     inkscape:pageopacity="0.0"
     inkscape:pageshadow="2"
     inkscape:zoom="1.4"
     inkscape:cx="51.035118"
     inkscape:cy="95.303851"
     inkscape:document-units="mm"
     inkscape:current-layer="layer1"
     inkscape:document-rotation="0"
     showgrid="false"
     inkscape:window-width="1465"
     inkscape:window-height="1040"
     inkscape:window-x="2049"
     inkscape:window-y="-11"
     inkscape:window-maximized="0" />
  <metadata
     id="metadata5">
    <rdf:RDF>
      <cc:Work
         rdf:about="">
        <dc:format>image/svg+xml</dc:format>
        <dc:type
           rdf:resource="http://purl.org/dc/dcmitype/StillImage" />
        <dc:title></dc:title>
      </cc:Work>
    </rdf:RDF>
  </metadata>
  <g
     inkscape:label="Warstwa 1"
     inkscape:groupmode="layer"
     id="layer1">
    <path
       style="fill:#ff0000;stroke-width:12.965"
       id="path881"
       d="m 14.541096,4.6431397 c 3.673491,-2.079395 -1.38594,0.6800526 -0.350104,0.669679 1.682096,-0.01685 3.21565,-1.003364 4.858731,-1.363951 2.188054,-0.480184 4.394716,-0.900724 6.620336,-1.155218 7.496307,-0.857187 8.067976,-0.446072 15.660822,0.126775 2.517243,0.633547 5.118785,0.99583 7.551729,1.900639 9.026189,3.3568216 16.530346,10.9196213 16.759222,21.0421293 0.05416,2.395138 -0.715857,4.737727 -1.073783,7.106589 -3.514225,6.009439 -3.685643,8.117972 -10.331161,11.636047 -1.952718,1.033748 -4.223512,1.357873 -6.405803,1.703332 -8.197819,1.29772 -13.675765,1.563248 -21.837782,-0.432504 -3.426505,-0.837837 -6.615832,-2.449978 -9.923749,-3.67497 -2.564809,-1.870884 -5.489672,-3.328469 -7.6944316,-5.612654 -3.5648527,-3.693276 -5.8825287,-8.55764 -4.6631827,-13.805167 0.535948,-2.306473 2.28809,-4.146431 3.432132,-6.219647 0,0 -3.364555,1.509926 -3.364555,1.509926 v 0 c -1.127048,2.143448 -2.91017096,4.054891 -3.38114196,6.430346 -1.06054498,5.349116 1.76073596,10.169927 5.42996396,13.704557 2.3284387,2.243021 5.3165133,3.68046 7.9747683,5.52069 3.354885,1.215837 6.60064,2.790719 10.064657,3.647517 6.18072,1.528749 15.276201,2.342935 21.601676,0.774086 4.13956,-1.026695 8.122878,-2.742287 11.865552,-4.787387 2.511179,-1.372182 4.819621,-3.208284 6.705655,-5.360442 1.685073,-1.922844 2.546985,-4.433967 3.820481,-6.65095 0.352192,-2.414186 1.123309,-4.80373 1.056581,-7.242559 C 68.716009,16.738185 64.445732,10.228945 58.465718,6.1776013 53.186894,2.6012997 50.245561,2.4431717 44.149561,0.90780366 c -2.645071,-0.237408 -5.280581,-0.636838 -7.935214,-0.712222 -4.487619,-0.127435 -9.289555,0.3529 -13.7204,1.11741404 -1.516766,0.261708 -3.070336,0.457423 -4.504089,1.01727 -4.543375,1.774082 -5.576398,2.511436 -8.5564602,4.4285536 0,0 5.1076982,-2.1156796 5.1076982,-2.1156796 z" />
  </g>
</svg>
