<?xml version="1.0" encoding="UTF-8" standalone="no"?>
<svg
   xmlns:dc="http://purl.org/dc/elements/1.1/"
   xmlns:cc="http://creativecommons.org/ns#"
   xmlns:rdf="http://www.w3.org/1999/02/22-rdf-syntax-ns#"
   xmlns:svg="http://www.w3.org/2000/svg"
   xmlns="http://www.w3.org/2000/svg"
   xmlns:xlink="http://www.w3.org/1999/xlink"
   xmlns:sodipodi="http://sodipodi.sourceforge.net/DTD/sodipodi-0.dtd"
   xmlns:inkscape="http://www.inkscape.org/namespaces/inkscape"
   width="40mm"
   height="18mm"
   viewBox="0 0 40 18"
   version="1.1"
   id="svg8"
   inkscape:version="1.0.2-2 (e86c870879, 2021-01-15)"
   sodipodi:docname="clip.svg">
  <defs
     id="defs2">
    <linearGradient
       inkscape:collect="always"
       id="linearGradient839">
      <stop
         style="stop-color:#b3b3b3;stop-opacity:1;"
         offset="0"
         id="stop835" />
      <stop
         style="stop-color:#b3b3b3;stop-opacity:0;"
         offset="1"
         id="stop837" />
    </linearGradient>
    <linearGradient
       inkscape:collect="always"
       xlink:href="#linearGradient839"
       id="linearGradient841"
       x1="30.067822"
       y1="14.031649"
       x2="30.335087"
       y2="30.60236"
       gradientUnits="userSpaceOnUse"
       gradientTransform="translate(-9.9123778,-2.7509767)" />
    <filter
       inkscape:collect="always"
       style="color-interpolation-filters:sRGB"
       id="filter1048"
       x="-0.036482152"
       width="1.0729643"
       y="-0.43454289"
       height="1.8690858">
      <feGaussianBlur
         inkscape:collect="always"
         stdDeviation="0.54440661"
         id="feGaussianBlur1050" />
    </filter>
  </defs>
  <sodipodi:namedview
     id="base"
     pagecolor="#ffffff"
     bordercolor="#666666"
     borderopacity="1.0"
     inkscape:pageopacity="0.0"
     inkscape:pageshadow="2"
     inkscape:zoom="2.8"
     inkscape:cx="104.39946"
     inkscape:cy="77.990593"
     inkscape:document-units="mm"
     inkscape:current-layer="layer1"
     inkscape:document-rotation="0"
     showgrid="false"
     inkscape:window-width="1465"
     inkscape:window-height="1040"
     inkscape:window-x="2102"
     inkscape:window-y="0"
     inkscape:window-maximized="0" />
  <metadata
     id="metadata5">
    <rdf:RDF>
      <cc:Work
         rdf:about="">
        <dc:format>image/svg+xml</dc:format>
        <dc:type
           rdf:resource="http://purl.org/dc/dcmitype/StillImage" />
        <dc:title></dc:title>
      </cc:Work>
    </rdf:RDF>
  </metadata>
  <g
     inkscape:label="Warstwa 1"
     inkscape:groupmode="layer"
     id="layer1">
    <rect
       style="fill:#999999;fill-opacity:1;stroke-width:16.736"
       id="rect1079"
       width="16.971615"
       height="4.9444861"
       x="11.711098"
       y="6.3136134"
       ry="1.0969877" />
    <path
       id="rect853-4"
       style="fill:#cccccc;stroke-width:13.5234"
       d="m 20.288821,0.34089335 c -2.497453,0 -4.507736,2.18737705 -4.507736,4.90460945 v 2.5817539 c 0,2.7172343 2.010283,4.9051293 4.507736,4.9051293 2.497452,0 4.508251,-2.187895 4.508251,-4.9051293 V 5.2455028 c 0,-2.7172324 -2.010799,-4.90460935 -4.508251,-4.90460945 z m -0.01654,2.78794285 a 2.0713389,2.0713389 0 0 1 0.01654,0 2.0713389,2.0713389 0 0 1 2.071708,2.0711927 2.0713389,2.0713389 0 0 1 -2.071708,2.0711901 2.0713389,2.0713389 0 0 1 -2.07119,-2.0711901 2.0713389,2.0713389 0 0 1 2.054653,-2.0711927 z" />
    <ellipse
       style="fill:#000000;fill-opacity:0.376443;stroke-width:15.1579;filter:url(#filter1048)"
       id="path922"
       cx="27.996483"
       cy="14.599599"
       rx="17.907057"
       ry="1.5033911"
       transform="matrix(1.0618987,0,0,0.98172657,-9.5739847,0.45577283)" />
    <path
       id="rect833"
       style="fill:url(#linearGradient841);fill-opacity:1;stroke-width:12.965"
       d="M 3.5034405,9.2793892 C 1.7763733,10.484826 0.64470017,12.479944 0.64470017,14.755024 c 0,0.0897 0.003248,0.178862 0.006718,0.267684 H 39.526048 c 0.0035,-0.08882 0.0067,-0.177983 0.0067,-0.267684 0,-2.370406 -1.229455,-4.433369 -3.080432,-5.6187786 -0.196451,0.1864058 -0.401471,0.364245 -0.626835,0.5162476 -0.261115,0.1761159 -0.540166,0.3277589 -0.834057,0.451652 -0.293891,0.123893 -0.602239,0.220066 -0.922425,0.285254 -0.320185,0.06519 -0.652192,0.09922 -0.992187,0.09922 H 6.7053121 c -0.339996,0 -0.6720028,-0.03403 -0.9921875,-0.09922 C 5.3929401,10.324211 5.0845913,10.228038 4.7907003,10.104145 4.4968094,9.9802519 4.2172411,9.8286089 3.9561259,9.652493 3.7933238,9.5426869 3.6514558,9.407451 3.5034405,9.2793892 Z" />
    <path
       id="path850"
       style="fill:#cccccc;fill-opacity:1;stroke-width:12.965"
       d="m 3.5034405,9.2793892 c 0.1480153,0.1280618 0.2898833,0.2632977 0.4526854,0.3731038 0.2611152,0.1761159 0.5406835,0.3277589 0.8345744,0.451652 0.293891,0.123893 0.6022398,0.220066 0.9224243,0.285254 0.3201847,0.06519 0.6521915,0.09922 0.9921875,0.09922 H 33.076829 c 0.339995,0 0.672002,-0.03403 0.992187,-0.09922 0.320186,-0.06519 0.628534,-0.161361 0.922425,-0.285254 C 35.285332,9.9802519 35.564383,9.8286089 35.825498,9.652493 36.050862,9.5004904 36.255882,9.3226512 36.452333,9.1362454 35.41278,8.4704908 34.182279,8.073778 32.851002,8.073778 H 7.326463 c -1.4266029,0 -2.7400546,0.4497353 -3.8230225,1.2056112 z" />
    <path
       id="rect1056"
       style="fill:#cccccc;fill-opacity:1;stroke-width:12.965"
       d="m 24.503474,3.474939 c 0,0 0.630982,1.818652 1.572433,2.9352549 1.246107,1.4779393 3.472656,1.7436702 3.472656,1.7436702 -1.216816,0.1656111 -2.24411,0.4690105 -2.285608,0.4784097 l -4.224139,0.9567523 c -0.0415,0.0094 -0.08722,-0.035551 -0.07681,-0.07681 L 24.072311,5.1109009 C 23.822269,5.89632 24.828263,4.7565482 24.503477,3.4749391 Z"
       sodipodi:nodetypes="cscsssccc" />
    <path
       id="rect1056-3"
       style="fill:#cccccc;fill-opacity:1;stroke-width:12.965"
       d="m 16.195643,3.2117769 c 0,0 -0.579129,1.8645173 -1.572433,2.9352549 -1.458719,1.5724333 -3.271857,1.9326583 -3.271857,1.9326583 1.334934,-0.023377 1.842353,0.3161839 1.884009,0.3248569 l 4.424939,0.921317 c 0.04166,0.00867 0.08722,-0.035551 0.07681,-0.07681 L 16.626806,4.8477388 C 16.876848,5.6331579 15.870854,4.4933861 16.19564,3.211777 Z"
       sodipodi:nodetypes="cscsssccc" />
  </g>
</svg>
