<svg xmlns="http://www.w3.org/2000/svg" height="600pt" version="1.1" viewBox="0 -25 600 600" width="600pt">
<g id="surface1">
<path d="M 570 60 L 70 60 L 70 10 C 70 4.476562 65.523438 0 60 0 L 0 0 L 0 20 L 50 20 L 50 90 L 20 90 C 14.476562 90 10 94.476562 10 100 L 10 180 C 10 185.523438 14.476562 190 20 190 L 50 190 L 50 200 L 20 200 C 14.476562 200 10 204.476562 10 210 L 10 290 C 10 295.523438 14.476562 300 20 300 L 50 300 L 50 550 L 70 550 L 70 440 L 570 440 C 586.566406 440 600 426.566406 600 410 L 600 90 C 600 73.433594 586.566406 60 570 60 Z M 30 170 L 30 110 L 50 110 L 50 170 Z M 30 280 L 30 220 L 50 220 L 50 280 Z M 580 410 C 580 415.523438 575.523438 420 570 420 L 70 420 L 70 80 L 570 80 C 575.523438 80 580 84.476562 580 90 Z M 580 410 " style=" stroke:none;fill-rule:nonzero;fill:rgb(0%,0%,0%);fill-opacity:1;" />
<path d="M 550 150 L 310 150 C 304.476562 150 300 154.476562 300 160 L 300 340 C 300 345.523438 304.476562 350 310 350 L 550 350 C 555.523438 350 560 345.523438 560 340 L 560 160 C 560 154.476562 555.523438 150 550 150 Z M 540 330 L 320 330 L 320 170 L 540 170 Z M 540 330 " style=" stroke:none;fill-rule:nonzero;fill:rgb(0%,0%,0%);fill-opacity:1;" />
<path d="M 360 310 L 390 310 L 390 250 C 390 244.476562 385.523438 240 380 240 L 360 240 L 360 260 L 370 260 L 370 290 L 360 290 C 354.476562 290 350 285.523438 350 280 L 350 220 C 350 214.476562 354.476562 210 360 210 L 390 210 L 390 190 L 360 190 C 343.433594 190 330 203.433594 330 220 L 330 280 C 330 296.566406 343.433594 310 360 310 Z M 360 310 " style=" stroke:none;fill-rule:nonzero;fill:rgb(0%,0%,0%);fill-opacity:1;" />
<path d="M 500 310 C 516.566406 310 530 296.566406 530 280 L 530 190 L 510 190 L 510 280 C 510 285.523438 505.523438 290 500 290 C 494.476562 290 490 285.523438 490 280 L 490 190 L 470 190 L 470 280 C 470 296.566406 483.433594 310 500 310 Z M 500 310 " style=" stroke:none;fill-rule:nonzero;fill:rgb(0%,0%,0%);fill-opacity:1;" />
<path d="M 420 260 L 450 260 C 455.523438 260 460 255.523438 460 250 L 460 200 C 460 194.476562 455.523438 190 450 190 L 410 190 C 404.476562 190 400 194.476562 400 200 L 400 310 L 420 310 Z M 420 210 L 440 210 L 440 240 L 420 240 Z M 420 210 " style=" stroke:none;fill-rule:nonzero;fill:rgb(0%,0%,0%);fill-opacity:1;" />
<path d="M 200 100 L 100 100 C 94.476562 100 90 104.476562 90 110 L 90 170 C 90 175.523438 94.476562 180 100 180 L 200 180 C 205.523438 180 210 175.523438 210 170 L 210 110 C 210 104.476562 205.523438 100 200 100 Z M 190 160 L 110 160 L 110 120 L 190 120 Z M 190 160 " style=" stroke:none;fill-rule:nonzero;fill:rgb(0%,0%,0%);fill-opacity:1;" />
<path d="M 200 210 L 100 210 C 94.476562 210 90 214.476562 90 220 L 90 280 C 90 285.523438 94.476562 290 100 290 L 200 290 C 205.523438 290 210 285.523438 210 280 L 210 220 C 210 214.476562 205.523438 210 200 210 Z M 190 270 L 110 270 L 110 230 L 190 230 Z M 190 270 " style=" stroke:none;fill-rule:nonzero;fill:rgb(0%,0%,0%);fill-opacity:1;" />
<path d="M 200 320 L 100 320 C 94.476562 320 90 324.476562 90 330 L 90 390 C 90 395.523438 94.476562 400 100 400 L 200 400 C 205.523438 400 210 395.523438 210 390 L 210 330 C 210 324.476562 205.523438 320 200 320 Z M 190 380 L 110 380 L 110 340 L 190 340 Z M 190 380 " style=" stroke:none;fill-rule:nonzero;fill:rgb(0%,0%,0%);fill-opacity:1;" />
<path d="M 220 110 L 240 110 L 240 150 L 220 150 Z M 220 110 " style=" stroke:none;fill-rule:nonzero;fill:rgb(0%,0%,0%);fill-opacity:1;" />
<path d="M 220 170 L 240 170 L 240 210 L 220 210 Z M 220 170 " style=" stroke:none;fill-rule:nonzero;fill:rgb(0%,0%,0%);fill-opacity:1;" />
<path d="M 220 230 L 240 230 L 240 270 L 220 270 Z M 220 230 " style=" stroke:none;fill-rule:nonzero;fill:rgb(0%,0%,0%);fill-opacity:1;" />
<path d="M 220 290 L 240 290 L 240 330 L 220 330 Z M 220 290 " style=" stroke:none;fill-rule:nonzero;fill:rgb(0%,0%,0%);fill-opacity:1;" />
<path d="M 220 350 L 240 350 L 240 390 L 220 390 Z M 220 350 " style=" stroke:none;fill-rule:nonzero;fill:rgb(0%,0%,0%);fill-opacity:1;" />
<path d="M 130 130 L 170 130 L 170 150 L 130 150 Z M 130 130 " style=" stroke:none;fill-rule:nonzero;fill:rgb(0%,0%,0%);fill-opacity:1;" />
<path d="M 130 240 L 170 240 L 170 260 L 130 260 Z M 130 240 " style=" stroke:none;fill-rule:nonzero;fill:rgb(0%,0%,0%);fill-opacity:1;" />
<path d="M 130 350 L 170 350 L 170 370 L 130 370 Z M 130 350 " style=" stroke:none;fill-rule:nonzero;fill:rgb(0%,0%,0%);fill-opacity:1;" />
<path d="M 250 100 L 270 100 L 270 120 L 250 120 Z M 250 100 " style=" stroke:none;fill-rule:nonzero;fill:rgb(0%,0%,0%);fill-opacity:1;" />
<path d="M 250 140 L 270 140 L 270 160 L 250 160 Z M 250 140 " style=" stroke:none;fill-rule:nonzero;fill:rgb(0%,0%,0%);fill-opacity:1;" />
<path d="M 250 180 L 270 180 L 270 200 L 250 200 Z M 250 180 " style=" stroke:none;fill-rule:nonzero;fill:rgb(0%,0%,0%);fill-opacity:1;" />
<path d="M 250 220 L 270 220 L 270 240 L 250 240 Z M 250 220 " style=" stroke:none;fill-rule:nonzero;fill:rgb(0%,0%,0%);fill-opacity:1;" />
<path d="M 250 260 L 270 260 L 270 280 L 250 280 Z M 250 260 " style=" stroke:none;fill-rule:nonzero;fill:rgb(0%,0%,0%);fill-opacity:1;" />
<path d="M 250 300 L 270 300 L 270 320 L 250 320 Z M 250 300 " style=" stroke:none;fill-rule:nonzero;fill:rgb(0%,0%,0%);fill-opacity:1;" />
<path d="M 250 340 L 270 340 L 270 360 L 250 360 Z M 250 340 " style=" stroke:none;fill-rule:nonzero;fill:rgb(0%,0%,0%);fill-opacity:1;" />
<path d="M 250 380 L 270 380 L 270 400 L 250 400 Z M 250 380 " style=" stroke:none;fill-rule:nonzero;fill:rgb(0%,0%,0%);fill-opacity:1;" />
</g>
</svg>