<?xml version="1.0" encoding="iso-8859-1"?>
<!-- Generator: Adobe Illustrator 19.0.0, SVG Export Plug-In . SVG Version: 6.00 Build 0)  -->
<svg version="1.1" id="Capa_1" xmlns="http://www.w3.org/2000/svg" xmlns:xlink="http://www.w3.org/1999/xlink" x="0px" y="0px"
	 viewBox="0 0 512 512" style="enable-background:new 0 0 512 512;" xml:space="preserve">
<g>
	<g>
		<g>
			<path d="M409.6,0H102.4C83.557,0.02,68.287,15.29,68.267,34.133v443.733C68.287,496.71,83.557,511.98,102.4,512h307.2
				c18.843-0.02,34.113-15.29,34.133-34.133V34.133C443.713,15.29,428.443,0.02,409.6,0z M426.667,477.867
				c-0.011,9.421-7.646,17.056-17.067,17.067H102.4c-9.421-0.011-17.056-7.645-17.067-17.067V34.133
				c0.011-9.421,7.646-17.056,17.067-17.067h307.2c9.421,0.011,17.056,7.646,17.067,17.067V477.867z"/>
			<path d="M110.933,51.2c0.542-0.016,1.083-0.073,1.617-0.171c0.566-0.082,1.115-0.255,1.625-0.513
				c0.543-0.188,1.059-0.447,1.533-0.771c0.449-0.313,0.878-0.654,1.284-1.021c3.3-3.365,3.3-8.752,0-12.117
				c-0.406-0.368-0.835-0.71-1.283-1.025c-0.475-0.324-0.99-0.583-1.533-0.771c-0.51-0.258-1.059-0.43-1.625-0.509
				c-2.78-0.504-5.633,0.352-7.675,2.304c-3.3,3.365-3.3,8.752,0,12.117C106.511,50.282,108.674,51.166,110.933,51.2z"/>
			<path d="M408.917,39.421c-0.189-0.542-0.446-1.057-0.767-1.533c-0.341-0.429-0.683-0.854-1.025-1.279
				c-0.425-0.341-0.858-0.683-1.283-1.025c-0.474-0.324-0.99-0.583-1.533-0.771c-0.51-0.258-1.059-0.43-1.625-0.508
				c-1.065-0.258-2.177-0.258-3.242,0c-0.563,0.079-1.11,0.25-1.617,0.508c-0.546,0.187-1.064,0.447-1.542,0.771l-1.275,1.025
				c-1.574,1.625-2.461,3.796-2.475,6.059c-0.022,2.27,0.87,4.453,2.475,6.058c1.605,1.605,3.788,2.497,6.058,2.475
				c0.542-0.016,1.083-0.073,1.617-0.171c0.566-0.082,1.115-0.255,1.625-0.513c0.543-0.188,1.059-0.447,1.533-0.771
				c0.425-0.338,0.858-0.679,1.284-1.021c0.341-0.429,0.683-0.854,1.025-1.367c0.337-0.436,0.596-0.926,0.767-1.45
				c0.26-0.508,0.432-1.056,0.508-1.621c0.103-0.535,0.162-1.077,0.175-1.621c-0.017-0.573-0.076-1.144-0.175-1.708
				C409.336,40.423,409.164,39.904,408.917,39.421z"/>
			<path d="M408.15,464.638c-0.341-0.513-0.683-0.938-1.025-1.363c-3.421-3.158-8.695-3.158-12.117,0
				c-0.772,0.814-1.38,1.769-1.792,2.813c-0.438,1.027-0.67,2.13-0.683,3.246c0.014,2.263,0.9,4.433,2.475,6.059
				c0.425,0.341,0.85,0.683,1.275,1.021c0.477,0.324,0.996,0.583,1.542,0.771c0.507,0.258,1.053,0.431,1.617,0.513
				c0.537,0.098,1.08,0.155,1.625,0.171c0.542-0.016,1.083-0.073,1.617-0.171c0.566-0.082,1.115-0.255,1.625-0.513
				c0.543-0.188,1.059-0.447,1.533-0.771c0.425-0.337,0.858-0.679,1.283-1.021c0.341-0.429,0.683-0.854,1.025-1.279
				c0.321-0.477,0.579-0.994,0.767-1.538c0.247-0.483,0.419-1.002,0.508-1.537c0.104-0.563,0.162-1.133,0.175-1.704
				c-0.013-1.116-0.245-2.219-0.683-3.246C408.744,465.565,408.485,465.074,408.15,464.638z"/>
			<path d="M115.709,462.25c-0.475-0.324-0.99-0.583-1.533-0.771c-0.51-0.258-1.059-0.43-1.625-0.508
				c-2.78-0.504-5.633,0.352-7.675,2.304c-3.3,3.365-3.3,8.752,0,12.117c0.803,0.788,1.762,1.399,2.816,1.792
				c1.025,0.438,2.127,0.67,3.242,0.683c2.262-0.019,4.43-0.905,6.059-2.475c3.3-3.365,3.3-8.752,0-12.117
				C116.567,462.934,116.134,462.592,115.709,462.25z"/>
			<path d="M347.366,36.634c-1.6-1.601-3.77-2.5-6.033-2.5H170.667c-2.263,0-4.434,0.899-6.033,2.5L104.9,96.367
				c-1.6,1.6-2.5,3.77-2.5,6.033v128c-0.001,2.263,0.898,4.434,2.499,6.035c1.6,1.6,3.771,2.499,6.035,2.499
				c9.426,0,17.067,7.641,17.067,17.067s-7.641,17.067-17.067,17.067c-2.263-0.001-4.434,0.898-6.035,2.499
				c-1.6,1.6-2.499,3.771-2.499,6.035v128c0.001,2.263,0.9,4.433,2.5,6.033l59.733,59.733c1.6,1.601,3.77,2.5,6.033,2.5h170.667
				c2.263,0,4.433-0.899,6.033-2.5l59.733-59.733c1.6-1.6,2.5-3.77,2.5-6.033v-128c0.001-2.263-0.898-4.434-2.499-6.035
				c-1.6-1.6-3.771-2.499-6.035-2.499c-9.426,0-17.067-7.641-17.067-17.067s7.641-17.067,17.067-17.067
				c2.263,0.001,4.434-0.898,6.035-2.499c1.6-1.6,2.499-3.771,2.499-6.035v-128c-0.001-2.263-0.9-4.433-2.5-6.033L347.366,36.634z
				 M392.533,222.946c-15.071,3.894-25.6,17.488-25.6,33.054c0,15.566,10.529,29.161,25.6,33.054v117.013L337.8,460.8H174.2
				l-54.733-54.733V289.054c15.071-3.894,25.6-17.488,25.6-33.054c0-15.566-10.529-29.161-25.6-33.054V105.933L174.2,51.2h163.6
				l54.733,54.733V222.946z"/>
			<path d="M179.2,341.333c-23.564,0-42.667,19.102-42.667,42.667c0,23.564,19.103,42.667,42.667,42.667
				c23.553-0.028,42.639-19.114,42.667-42.667C221.867,360.436,202.764,341.333,179.2,341.333z M179.2,409.6
				c-14.132-0.015-25.585-11.468-25.6-25.6c0-14.138,11.462-25.6,25.6-25.6s25.6,11.462,25.6,25.6
				C204.8,398.138,193.339,409.6,179.2,409.6z"/>
			<path d="M179.2,375.467c-4.713,0-8.533,3.82-8.533,8.533c0.018,0.571,0.074,1.14,0.167,1.704c0.096,0.535,0.27,1.053,0.517,1.537
				c0.184,0.545,0.442,1.062,0.767,1.538c0.317,0.446,0.659,0.873,1.025,1.279c3.365,3.3,8.752,3.3,12.117,0h0.001
				c0.366-0.406,0.708-0.834,1.025-1.279c0.321-0.477,0.579-0.994,0.767-1.538c0.247-0.483,0.419-1.002,0.508-1.537
				c0.104-0.563,0.162-1.133,0.175-1.705C187.733,379.287,183.913,375.467,179.2,375.467z"/>
			<path d="M324.267,68.267H187.733c-9.421,0.011-17.056,7.645-17.067,17.067v25.6c0.011,9.421,7.645,17.056,17.067,17.067h136.533
				c9.421-0.011,17.056-7.645,17.067-17.067v-25.6C341.323,75.912,333.688,68.277,324.267,68.267z M298.667,110.933
				c0-4.713-3.82-8.533-8.533-8.533s-8.533,3.82-8.533,8.533h-17.067c0-4.713-3.82-8.533-8.533-8.533s-8.533,3.82-8.533,8.533H230.4
				c0-4.713-3.821-8.533-8.533-8.533c-4.713,0-8.533,3.82-8.533,8.533h-25.6v-25.6h136.533l0.009,25.6H298.667z"/>
			<path d="M324.267,145.067H187.733c-9.421,0.011-17.056,7.646-17.067,17.067v135.933c-0.011,8.562,4.27,16.56,11.4,21.3
				l64.892,43.263c4.204,2.813,9.15,4.311,14.208,4.304h63.1c9.421-0.011,17.056-7.646,17.067-17.067V162.133
				C341.323,152.712,333.688,145.077,324.267,145.067z M324.267,315.733h-51.2c-4.713,0-8.533,3.82-8.533,8.533
				s3.82,8.533,8.533,8.533h51.2v17.067h-63.1c-1.685,0.001-3.332-0.498-4.733-1.434l-64.9-43.267c-2.377-1.58-3.804-4.246-3.8-7.1
				V162.133l136.533,0.025V315.733z"/>
			<path d="M221.867,213.333c2.263,0.001,4.434-0.898,6.035-2.499c1.6-1.6,2.499-3.771,2.499-6.035v-17.067
				c0-4.713-3.821-8.533-8.533-8.533c-4.713,0-8.533,3.82-8.533,8.533V204.8c-0.001,2.263,0.898,4.434,2.499,6.035
				C217.432,212.435,219.603,213.334,221.867,213.333z"/>
			<path d="M256,213.333c2.263,0.001,4.434-0.898,6.035-2.499c1.6-1.6,2.499-3.771,2.499-6.035v-17.067
				c0-4.713-3.82-8.533-8.533-8.533s-8.533,3.82-8.533,8.533V204.8c-0.001,2.263,0.898,4.434,2.499,6.035
				C251.566,212.435,253.737,213.334,256,213.333z"/>
			<path d="M290.133,213.333c2.263,0.001,4.434-0.898,6.035-2.499c1.6-1.6,2.499-3.771,2.499-6.035v-17.067
				c0-4.713-3.82-8.533-8.533-8.533s-8.533,3.82-8.533,8.533V204.8c-0.001,2.263,0.898,4.434,2.499,6.035
				C285.699,212.435,287.87,213.334,290.133,213.333z"/>
		</g>
	</g>
</g>
<g>
</g>
<g>
</g>
<g>
</g>
<g>
</g>
<g>
</g>
<g>
</g>
<g>
</g>
<g>
</g>
<g>
</g>
<g>
</g>
<g>
</g>
<g>
</g>
<g>
</g>
<g>
</g>
<g>
</g>
</svg>
