<?xml version="1.0" encoding="UTF-8" standalone="no"?>
<svg
   xmlns:osb="http://www.openswatchbook.org/uri/2009/osb"
   xmlns:dc="http://purl.org/dc/elements/1.1/"
   xmlns:cc="http://creativecommons.org/ns#"
   xmlns:rdf="http://www.w3.org/1999/02/22-rdf-syntax-ns#"
   xmlns:svg="http://www.w3.org/2000/svg"
   xmlns="http://www.w3.org/2000/svg"
   xmlns:xlink="http://www.w3.org/1999/xlink"
   xmlns:sodipodi="http://sodipodi.sourceforge.net/DTD/sodipodi-0.dtd"
   xmlns:inkscape="http://www.inkscape.org/namespaces/inkscape"
   width="51mm"
   height="54mm"
   viewBox="0 0 51 54"
   version="1.1"
   id="svg8"
   inkscape:version="1.0.2-2 (e86c870879, 2021-01-15)"
   sodipodi:docname="holder.svg">
  <defs
     id="defs2">
    <linearGradient
       id="linearGradient984"
       osb:paint="solid">
      <stop
         style="stop-color:#808080;stop-opacity:1;"
         offset="0"
         id="stop982" />
    </linearGradient>
    <linearGradient
       inkscape:collect="always"
       id="linearGradient970">
      <stop
         style="stop-color:#161616;stop-opacity:1"
         offset="0"
         id="stop966" />
      <stop
         style="stop-color:#ffffff;stop-opacity:1"
         offset="1"
         id="stop968" />
    </linearGradient>
    <linearGradient
       inkscape:collect="always"
       id="linearGradient907-4-7-1">
      <stop
         style="stop-color:#161616;stop-opacity:1"
         offset="0"
         id="stop903" />
      <stop
         style="stop-color:#ededed;stop-opacity:1"
         offset="1"
         id="stop905" />
    </linearGradient>
    <radialGradient
       inkscape:collect="always"
       xlink:href="#linearGradient907-4-7-1"
       id="radialGradient911"
       cx="356.66943"
       cy="136.60893"
       fx="356.66943"
       fy="136.60893"
       r="88.873924"
       gradientTransform="matrix(-0.99906057,-0.00253625,0.00288518,-1.1365226,381.22586,148.95991)"
       gradientUnits="userSpaceOnUse" />
    <linearGradient
       inkscape:collect="always"
       xlink:href="#linearGradient970"
       id="linearGradient919"
       x1="56.094429"
       y1="50.733006"
       x2="121.96319"
       y2="114.94641"
       gradientUnits="userSpaceOnUse"
       gradientTransform="matrix(1.0002324,0,0,0.5891437,-66.910612,1.441302)" />
    <linearGradient
       inkscape:collect="always"
       xlink:href="#linearGradient984"
       id="linearGradient986"
       x1="76.639694"
       y1="37.527184"
       x2="81.160248"
       y2="37.527184"
       gradientUnits="userSpaceOnUse"
       gradientTransform="translate(-68.360173,-31.342127)" />
    <linearGradient
       inkscape:collect="always"
       xlink:href="#linearGradient984"
       id="linearGradient1045"
       gradientUnits="userSpaceOnUse"
       gradientTransform="translate(-49.522053,-10.108169)"
       x1="76.639694"
       y1="37.527184"
       x2="81.160248"
       y2="37.527184" />
  </defs>
  <sodipodi:namedview
     id="base"
     pagecolor="#ffffff"
     bordercolor="#666666"
     borderopacity="1.0"
     inkscape:pageopacity="0.0"
     inkscape:pageshadow="2"
     inkscape:zoom="1.4"
     inkscape:cx="64.707982"
     inkscape:cy="197.83769"
     inkscape:document-units="mm"
     inkscape:current-layer="layer1"
     inkscape:document-rotation="0"
     showgrid="false"
     inkscape:window-width="1920"
     inkscape:window-height="1017"
     inkscape:window-x="1912"
     inkscape:window-y="-8"
     inkscape:window-maximized="1" />
  <metadata
     id="metadata5">
    <rdf:RDF>
      <cc:Work
         rdf:about="">
        <dc:format>image/svg+xml</dc:format>
        <dc:type
           rdf:resource="http://purl.org/dc/dcmitype/StillImage" />
        <dc:title></dc:title>
      </cc:Work>
    </rdf:RDF>
  </metadata>
  <g
     inkscape:label="Warstwa 1"
     inkscape:groupmode="layer"
     id="layer1">
    <path
       id="rect833"
       style="fill:url(#radialGradient911);fill-opacity:1;stroke:#000000;stroke-width:0.0629944;stroke-linejoin:round;stroke-miterlimit:4;stroke-dasharray:none"
       d="m 6.7187776,0.20570117 c -0.0509,0 -1.149799,1.09942103 -1.149799,1.15031603 V 12.421492 L 1.979535,53.140454 48.945659,53.274296 44.827049,12.451464 V 1.3560172 c -3e-6,-0.0509 -1.099423,-1.15031603 -1.150319,-1.15031603 z"
       sodipodi:nodetypes="sscccccss" />
    <path
       style="fill:none;stroke:#000000;stroke-width:0.065;stroke-linecap:butt;stroke-linejoin:miter;stroke-miterlimit:4;stroke-dasharray:none;stroke-opacity:1"
       d="m 5.5689786,12.421492 c 17.5449044,0 39.3273724,0 39.3273724,0 H 23.047066"
       id="path840" />
    <rect
       style="fill:url(#linearGradient919);fill-opacity:1;stroke:#000000;stroke-width:0.0383823;stroke-linejoin:miter;stroke-miterlimit:4;stroke-dasharray:none"
       id="rect844"
       width="50.007046"
       height="4.3193054"
       x="0.54852813"
       y="49.028397"
       ry="2.1596527"
       rx="2.2997653" />
    <circle
       style="fill:url(#linearGradient986);fill-opacity:1;stroke:#000000;stroke-width:0.05;stroke-linejoin:miter;stroke-miterlimit:4;stroke-dasharray:none"
       id="path980"
       cx="10.539796"
       cy="6.1850567"
       r="2.1777804" />
    <path
       id="rect988"
       style="fill:#808080;fill-opacity:1;stroke:#000000;stroke-width:0.0499999;stroke-linejoin:miter;stroke-miterlimit:4;stroke-dasharray:none"
       d="m 11.272795,5.1789128 c -0.08316,-0.06056 -0.198922,-0.04199 -0.259485,0.04117 l -0.379381,0.52089 a 0.43855409,0.44416135 36.065295 0 0 -0.307362,0.05424 L 9.7989776,5.4109818 c -0.08316,-0.06056 -0.199039,-0.04271 -0.259597,0.04045 -0.06056,0.08315 -0.04229,0.199339 0.04086,0.259899 l 0.5338684,0.388777 a 0.43855409,0.44416135 36.065295 0 0 0.04677,0.290412 l -0.3896874,0.535124 c -0.06056,0.08316 -0.0424,0.19862 0.04075,0.259179 0.08316,0.06056 0.1990404,0.04271 0.2595994,-0.04044 l 0.389382,-0.534704 a 0.43855409,0.44416135 36.065295 0 0 0.290642,-0.04532 l 0.534283,0.389078 c 0.08316,0.06056 0.198927,0.04198 0.259482,-0.04116 0.06056,-0.08316 0.04241,-0.198623 -0.04075,-0.25918 l -0.528007,-0.384534 a 0.43855409,0.44416135 36.065295 0 0 -0.04227,-0.308873 l 0.379381,-0.52089 c 0.06056,-0.08316 0.04229,-0.199346 -0.04086,-0.259903 z" />
    <circle
       style="fill:url(#linearGradient1045);fill-opacity:1;stroke:#000000;stroke-width:0.05;stroke-linejoin:miter;stroke-miterlimit:4;stroke-dasharray:none"
       id="path980-8"
       cx="29.377905"
       cy="27.419012"
       r="2.1777804"
       transform="rotate(-34.299296)" />
    <path
       id="rect988-1"
       style="fill:#808080;fill-opacity:1;stroke:#000000;stroke-width:0.0499999;stroke-linejoin:miter;stroke-miterlimit:4;stroke-dasharray:none"
       d="m 39.328531,4.9148128 c -0.0976,0.03254 -0.14972,0.137529 -0.11721,0.235131 l 0.20366,0.611377 a 0.44416135,0.43855409 71.576377 0 0 -0.13438,0.281696 l -0.61922,0.206272 c -0.0976,0.03254 -0.15038,0.137212 -0.11787,0.234808 0.0325,0.09757 0.13769,0.150216 0.23529,0.117704 l 0.62657,-0.208718 a 0.44416135,0.43855409 71.576377 0 0 0.26357,0.130616 l 0.20921,0.628051 c 0.0325,0.09758 0.13709,0.14986 0.23464,0.117375 0.0976,-0.03254 0.15038,-0.137212 0.11787,-0.234806 l -0.20904,-0.627554 a 0.44416135,0.43855409 71.576377 0 0 0.13192,-0.26291 l 0.62707,-0.208883 c 0.0976,-0.03254 0.14972,-0.137537 0.11721,-0.235129 -0.0326,-0.09758 -0.13709,-0.149863 -0.23464,-0.117383 l -0.61971,0.206437 a 0.44416135,0.43855409 71.576377 0 0 -0.27598,-0.145006 l -0.20366,-0.611372 c -0.0326,-0.09758 -0.1377,-0.15022 -0.2353,-0.117706 z" />
  </g>
</svg>
