<svg id="Capa_1" enable-background="new 0 0 512 512" height="512" viewBox="0 0 512 512" width="512" xmlns="http://www.w3.org/2000/svg"><g><path d="m456 122h-35v-17c0-8.271 6.729-15 15-15h50c8.284 0 15-6.716 15-15s-6.716-15-15-15h-50c-24.813 0-45 20.187-45 45v17h-30v-17c0-41.355 33.645-75 75-75h50c8.284 0 15-6.716 15-15s-6.716-15-15-15h-50c-57.897 0-105 47.103-105 105v17h-30v-107c0-8.284-6.716-15-15-15s-15 6.716-15 15v107h-30v-107c0-8.284-6.716-15-15-15s-15 6.716-15 15v107h-30v-17c0-57.897-47.103-105-105-105h-50c-8.284 0-15 6.716-15 15s6.716 15 15 15h50c41.355 0 75 33.645 75 75v17h-30v-17c0-24.813-20.187-45-45-45h-50c-8.284 0-15 6.716-15 15s6.716 15 15 15h50c8.271 0 15 6.729 15 15v17h-35c-30.327 0-55 24.673-55 55v280c0 30.327 24.673 55 55 55h400c30.327 0 55-24.673 55-55v-280c0-30.327-24.673-55-55-55zm25 335c0 13.785-11.215 25-25 25h-400c-13.785 0-25-11.215-25-25v-280c0-13.785 11.215-25 25-25h400c13.785 0 25 11.215 25 25z"/><path d="m436 182h-360c-8.284 0-15 6.716-15 15v240c0 8.284 6.716 15 15 15h360c8.284 0 15-6.716 15-15v-240c0-8.284-6.716-15-15-15zm-15 240h-330v-210h330z"/><path d="m336 332h5v45c0 8.284 6.716 15 15 15s15-6.716 15-15v-45h5c8.284 0 15-6.716 15-15s-6.716-15-15-15h-40c-8.284 0-15 6.716-15 15s6.716 15 15 15z"/><path d="m136 392h40c8.284 0 15-6.716 15-15s-6.716-15-15-15h-5v-45c0-8.284-6.716-15-15-15s-15 6.716-15 15v45h-5c-8.284 0-15 6.716-15 15s6.716 15 15 15z"/><path d="m236 332h5v45c0 8.284 6.716 15 15 15s15-6.716 15-15v-45h5c8.284 0 15-6.716 15-15s-6.716-15-15-15h-40c-8.284 0-15 6.716-15 15s6.716 15 15 15z"/><circle cx="356" cy="257" r="15"/><circle cx="256" cy="257" r="15"/><circle cx="156" cy="257" r="15"/></g></svg>