<?xml version="1.0" encoding="UTF-8" standalone="no"?>
<svg
   xmlns:dc="http://purl.org/dc/elements/1.1/"
   xmlns:cc="http://creativecommons.org/ns#"
   xmlns:rdf="http://www.w3.org/1999/02/22-rdf-syntax-ns#"
   xmlns:svg="http://www.w3.org/2000/svg"
   xmlns="http://www.w3.org/2000/svg"
   xmlns:sodipodi="http://sodipodi.sourceforge.net/DTD/sodipodi-0.dtd"
   xmlns:inkscape="http://www.inkscape.org/namespaces/inkscape"
   width="37mm"
   height="5.5mm"
   viewBox="0 0 37 5.5"
   version="1.1"
   id="svg8"
   inkscape:version="1.0.2-2 (e86c870879, 2021-01-15)"
   sodipodi:docname="underscore.svg">
  <defs
     id="defs2" />
  <sodipodi:namedview
     id="base"
     pagecolor="#ffffff"
     bordercolor="#666666"
     borderopacity="1.0"
     inkscape:pageopacity="0.0"
     inkscape:pageshadow="2"
     inkscape:zoom="2.8"
     inkscape:cx="116.94209"
     inkscape:cy="81.334646"
     inkscape:document-units="mm"
     inkscape:current-layer="layer1"
     inkscape:document-rotation="0"
     showgrid="false"
     inkscape:window-width="1465"
     inkscape:window-height="1040"
     inkscape:window-x="2050"
     inkscape:window-y="0"
     inkscape:window-maximized="0" />
  <metadata
     id="metadata5">
    <rdf:RDF>
      <cc:Work
         rdf:about="">
        <dc:format>image/svg+xml</dc:format>
        <dc:type
           rdf:resource="http://purl.org/dc/dcmitype/StillImage" />
        <dc:title></dc:title>
      </cc:Work>
    </rdf:RDF>
  </metadata>
  <g
     inkscape:label="Warstwa 1"
     inkscape:groupmode="layer"
     id="layer1">
    <path
       style="fill:#ff0000;stroke-width:12.965"
       id="path1093"
       d="M 0.24294712,4.2810315 C 4.1113891,4.1461225 7.9579051,3.6742135 11.799422,3.2250645 c 0.863512,-0.101896 1.726923,-0.2046382 2.590533,-0.305687 1.617496,-0.1892586 3.350927,-0.3945478 4.972709,-0.5548564 2.343851,-0.2316835 4.691653,-0.3924644 7.041729,-0.5433965 1.973879,-0.122279 3.949518,-0.2162932 5.926516,-0.2688691 0.87393,-0.023241 1.750999,-0.010671 2.62282,-0.082774 0.338423,-0.2777558 0.856401,-0.4252978 1.01527,-0.83326727 0.08124,-0.2086216 -0.445556,-0.05065 -0.669396,-0.054921 -0.34902,-0.00666 -0.69831,0.006 -1.047017,0.022175 -1.605135,0.074456 -3.203324,0.2625185 -4.800081,0.43293717 -4.678688,0.5397942 -9.361379,1.044448 -14.040152,1.5832304 -3.232898,0.3654589 -6.4654279,0.7776537 -9.6553499,1.4263037 -0.470508,0.144298 -1.181243,0.30982 -1.251576,0.947973 -0.03046,0.276403 0.555425,-0.03196 0.832036,-0.06048 0.474492,-0.04893 0.947358,-0.112565 1.420674,-0.1718 1.540225,-0.192755 3.0793384,-0.394293 4.6190269,-0.591291 3.136095,-0.406531 6.271368,-0.82027 9.410395,-1.2037968 1.73182,-0.2115942 3.715713,-0.4500666 5.464641,-0.6107996 0.738669,-0.067887 1.479055,-0.1156193 2.218584,-0.1734289 1.660123,-0.1036843 3.324489,-0.1260445 4.986795,-0.072699 0.683125,0.021923 1.3794,0.0403 2.053609,0.1628156 0.310062,-0.2541236 0.865364,-0.3667506 0.930187,-0.7623707 0.0449,-0.2740705 -0.548978,0.085242 -0.824698,0.1185521 -0.505071,0.06102 -1.011341,0.1117653 -1.517356,0.1643989 -2.655462,0.2762096 -5.31213,0.540099 -7.967356,0.8188087 -5.078822,0.5679897 -10.149308,1.2066667 -15.227101,1.7835047 0,0 -0.581764,0.434036 -0.581764,0.434036 v 0 c 5.103699,-0.716564 10.216931,-1.37086 15.346503,-1.8747995 2.600786,-0.2262772 3.082991,-0.2841477 5.588429,-0.4449133 0.892704,-0.057282 2.417421,-0.1395933 3.388466,-0.1645666 0.234246,-0.00602 0.487918,0.092594 0.702968,-4.762e-4 0.456097,-0.1973654 0.822304,-0.5583203 1.233456,-0.8374803 -2.49288,-0.010615 -4.9892,-0.011001 -7.47518,0.203722 -0.764852,0.07584 -1.530736,0.1419389 -2.294559,0.2275197 -1.482527,0.1661054 -4.170064,0.5273043 -5.598719,0.7097781 -3.083758,0.3938704 -6.16962,0.7729351 -9.261923,1.0941881 -1.535068,0.148853 -2.8374795,0.285465 -4.3563629,0.398598 -0.427373,0.03183 -0.855247,0.05763 -1.283375,0.07679 -0.223726,0.01001 -0.462731,-0.06966 -0.671763,0.01071 -0.4483,0.172357 -0.841617,0.464698 -1.244569,0.726058 -0.128499,0.08335 0.27887,-0.126753 0.418306,-0.19013 0.287753,-0.07608 0.573535,-0.160063 0.863261,-0.228253 3.003105,-0.706815 6.0734759,-1.081031 9.1299189,-1.4665312 4.630719,-0.5491536 9.267862,-1.0448007 13.909908,-1.4884437 1.531901,-0.1349708 3.07054,-0.3016962 4.610486,-0.3070228 0.316947,-0.00108 0.633931,0.013891 0.950235,0.034071 0.172332,0.010993 0.352235,0.1181057 0.514626,0.05939 0.430231,-0.1555586 0.795877,-0.45140747 1.193815,-0.67711107 -0.163679,0.04169 -0.324011,0.099936 -0.491034,0.1250712 -0.615117,0.092569 -1.871491,0.1520008 -2.41108,0.1837079 C 31.067876,1.1177631 29.049975,1.2217706 27.033956,1.3572968 25.389095,1.4701463 24.000241,1.5584113 22.355001,1.699983 19.011237,1.9877113 15.682786,2.4177031 12.350882,2.8146863 9.3002965,3.1579443 6.2460771,3.5209955 3.1721451,3.5525325 c -0.825447,0.0085 -1.106813,-0.01783 -1.829039,-0.06246 0,0 -1.10015898,0.790946 -1.10015898,0.790946 z" />
  </g>
</svg>
